<?xml version="1.0" standalone="no"?><!DOCTYPE svg PUBLIC "-//W3C//DTD SVG 1.1//EN" "http://www.w3.org/Graphics/SVG/1.1/DTD/svg11.dtd"><svg class="icon" width="64px" height="64.00px" viewBox="0 0 1024 1024" version="1.1" xmlns="http://www.w3.org/2000/svg"><path d="M0 0h1024v1024H0z" fill="#C5F9F9" /><path d="M955.3 574.8l-3.7 77.1-383.7 238.7 0.7-78.8z" fill="#7D95A1" /><path d="M568.6 811.8l-0.7 78.8L67.7 586l-3.2-76.6z" fill="#4D6677" /><path d="M955.3 574.8l-386.7 237L64.5 509.4l387.1-210.8z" fill="#3F6570" /><path d="M956.6 564l-0.4 15.5-387.6 232.2 0.1-15.6z" fill="#1DA19D" /><path d="M568.7 796.1l-0.1 15.6L63.8 513.4l-0.3-15.4z" fill="#106E75" /><path d="M956.6 564L568.7 796.1 63.5 498l388.1-219z" fill="#55D9CA" /><path d="M427.8 109.2l-45.4 44.3-17.3 115.8-10.2 136.2 36.4 18.3 80.8-25.9 12 16 40.4-23.7 34.7 1.5-49.7-125.2-25.4-7.6-13.3-79.4-21.5-70.3z" fill="#FF6781" /><path d="M397.6 156.6l-20.8 112.7-11.7 130.1 26.4 14.5 65.5-20.6v-99.8L437.3 317l-9.5-113.1zM457 179.5l7.8 41.7-21.3-30.1z" fill="#FF97B7" /><path d="M532.4 163.2l-57.3 109.9L439 405.6l64.8 12 66.6-17.3 43.1 12.1-11.2-99.3-18.6-33.3z" fill="#FF6781" /><path d="M518.3 201.7l-33.8 71.1-34.9 129.1 51.1 8.5 17.6-18.7 11.7 12.5 36.4-10.7-12-87.4-20.1 39 5.4-75z" fill="#FF97B7" /><path d="M547.2 306.4l14-24.8-26.7-54.9 12.1 44.6-2.7 14.6zM603.5 384.5l4.4 21.4-6-4.7-4.8 1.3z" fill="#FF97B7" /><path d="M738.3 277.9l-35 29.2-4 50.7L654 425l-9.5 114.4 62.6 9.8 71.2-22.9 46.8 20.2 54.6-24.2-47.5-68-9.5-56.2-50.4-48.5-8.2-45.6z" fill="#FF6781" /><path d="M739.1 283.4l-25.5 23.8v42.1l-50.5 66.9-9 108.7 59.5 9.4 88.2-29.4-20.6-99.6L757 435l2.8-69.2-13.4-60.1z" fill="#FF97B7" /><path d="M769.8 360.5l-0.1 39.5 14.3-13.4z" fill="#FF97B7" /><path d="M345.4 338.9l-29.3 47.5 8.2 46.1 43.2 7.7H467l33.7-29.8-35.9-76.3-76.8-11.6z" fill="#FF6781" /><path d="M333.2 375l18.3-23.4 92 11.7-28 30.3 49.2 16.8-10.6 25.4h-86.6l-38.1-6.1-5.7-43.3z" fill="#FF97B7" /><path d="M740.8 492.1l-29.3 47.5 8.2 46.1 43.1 7.7h99.6l33.6-29.8-35.8-76.3-76.8-11.6z" fill="#FF6781" /><path d="M728.5 528.2l18.4-23.4 91.9 11.7-28 30.3 49.2 16.8-10.5 25.4h-86.7l-38.1-6.1-5.6-43.3z" fill="#FF97B7" /><path d="M488.8 440.2l26.1 5.1 5.2 11.1-31.3 16.7-15.5-16.7z" fill="#FF6781" /><path d="M488.8 446.1l-8.3 8 10.4 12.9 20.9-10.6z" fill="#FF97B7" /><path d="M613.6 370.5s23.9 36.2 10.2 56.1c-13.7 20-107.3 63-169.7 71.4-62.4 8.4-120.3 21.2-154.5 39.6-21.4 9.7-45.6 27.6-70.3 58.2l18.1 10.9s21.4-39 122.7-56.3c0 0 52.5-4.3 66-4.3 0 0-104 21.3-145 86.1l79 46.6s77.1-99 179.6-120.7c0 0 111.2-33.5 105-131.6 0 0-5.7-32.9-30.9-50.4l-10.2-5.6z" fill="#7DEEFA" /><path d="M229.3 595.8v177.1l16.5 17.7 1.6-183.9z" fill="#5FCDE1" /><path d="M291.1 632.3v188.3l79.4 70-0.4-211.7z" fill="#5FCDE1" /><path d="M286.3 788.5c0-4.1-6.8-7.7-16.7-9.4 1.2-1.3 2-2.9 2-4.5 0-5.1-6.8-9.2-15.2-9.2-7 0-12.8 2.8-14.6 6.7l-0.3-0.3c1.4-1.8 2.3-4 2.3-6.3 0-5.9-5.3-10.8-11.9-10.8s-11.9 4.8-11.9 10.8c0 0.3 0 0.6 0.1 1-5.3 1.6-9.3 5.1-10.3 9.4-14.7 0.7-26.3 7.7-26.3 16.3 0 9 12.9 16.4 28.8 16.4 7.3 0 13.9-1.5 19-4.1 3.3 2.5 8.1 4.1 13.4 4.1 8.7 0 15.9-4.2 17.7-9.7 13.7-1.1 23.9-5.4 23.9-10.4z" fill="#FFFFFF" /><path d="M197.4 756.1a4.6 5.3 0 1 0 9.2 0 4.6 5.3 0 1 0-9.2 0Z" fill="#FFFFFF" /><path d="M211 741.3a8.1 13.3 0 1 0 16.2 0 8.1 13.3 0 1 0-16.2 0Z" fill="#FFFFFF" /><path d="M266.7 754.6a1.9 6.9 0 1 0 3.8 0 1.9 6.9 0 1 0-3.8 0Z" fill="#FFFFFF" /><path d="M307.4 841a20.5 14.2 0 1 0 41 0 20.5 14.2 0 1 0-41 0Z" fill="#FFFFFF" /><path d="M343.9 872.9a24.1 17.7 0 1 0 48.2 0 24.1 17.7 0 1 0-48.2 0Z" fill="#FFFFFF" /><path d="M307.3 873a27.5 22.2 0 1 0 55 0 27.5 22.2 0 1 0-55 0Z" fill="#FFFFFF" /><path d="M270.5 856.2a32.2 20.6 0 1 0 64.4 0 32.2 20.6 0 1 0-64.4 0Z" fill="#FFFFFF" /><path d="M266.7 867.6a18 23 0 1 0 36 0 18 23 0 1 0-36 0Z" fill="#FFFFFF" /><path d="M275.3 836.5a24.2 19.8 0 1 0 48.4 0 24.2 19.8 0 1 0-48.4 0Z" fill="#FFFFFF" /><path d="M227.3 846.7a31.9 17.4 0 1 0 63.8 0 31.9 17.4 0 1 0-63.8 0Z" fill="#FFFFFF" /><path d="M231.9 877.3a19.3 13.3 0 1 0 38.6 0 19.3 13.3 0 1 0-38.6 0Z" fill="#FFFFFF" /><path d="M251.2 866.5a12 10.3 0 1 0 24 0 12 10.3 0 1 0-24 0Z" fill="#FFFFFF" /><path d="M352.8 830.1a7.1 10.9 0 1 0 14.2 0 7.1 10.9 0 1 0-14.2 0Z" fill="#FFFFFF" /><path d="M327.9 822.7a7.1 10.9 0 1 0 14.2 0 7.1 10.9 0 1 0-14.2 0Z" fill="#FFFFFF" /><path d="M382.2 853.1a3.7 2.2 0 1 0 7.4 0 3.7 2.2 0 1 0-7.4 0Z" fill="#FFFFFF" /><path d="M270.6 830.6a13.1 13.9 0 1 0 26.2 0 13.1 13.9 0 1 0-26.2 0Z" fill="#FFFFFF" /><path d="M287 883.5a23.9 11.7 0 1 0 47.8 0 23.9 11.7 0 1 0-47.8 0Z" fill="#FFFFFF" /><path d="M263.3 901.5a3.6 2.5 0 1 0 7.2 0 3.6 2.5 0 1 0-7.2 0Z" fill="#FFFFFF" /><path d="M219.1 859.7a2.6 4.4 0 1 0 5.2 0 2.6 4.4 0 1 0-5.2 0Z" fill="#FFFFFF" /><path d="M266.7 815.5a4.7 3.7 0 1 0 9.4 0 4.7 3.7 0 1 0-9.4 0Z" fill="#FFFFFF" /><path d="M367.1 901.8a12.5 6.6 0 1 0 25 0 12.5 6.6 0 1 0-25 0Z" fill="#FFFFFF" /><path d="M239.2 491.1c0.3 0.7-0.2 1.5-1 1.5-5.2 1.6-10.6 2.5-16 2.7-1 0.1-2 0.1-3.1 0.1v-49.3c0.4 0 0.8 0.2 1 0.7l19.1 44.3z" fill="#1B776E" /><path d="M222.2 495.6v6.9c0 1.7-1.4 3.1-3.1 3.1s-3.1-1.4-3.1-3.1v-6.9-0.3c1 0.1 2 0.1 3.1 0.1s2 0 3.1-0.1v0.3z" fill="#4F2F05" /><path d="M219.1 446.1v49.3c-1 0-2 0-3.1-0.1-5.4-0.2-10.8-1.2-16-2.7-0.6 0-1.1-0.5-1.1-1.1 0-0.1 0-0.3 0.1-0.4l19-44.3c0.3-0.5 0.7-0.7 1.1-0.7z" fill="#23A399" /><path d="M575.7 681.7c0.4 0.9-0.3 1.9-1.3 1.9-6.6 2-13.4 3.1-20.2 3.5-1.3 0.1-2.6 0.1-3.9 0.1v-62.4c0.5 0 1 0.3 1.3 0.8l24.1 56.1z" fill="#1B776E" /><path d="M554.2 687.4v8.7c0 2.1-1.8 3.9-3.9 3.9-2.1 0-3.9-1.8-3.9-3.9v-8.7-0.3c1.3 0.1 2.6 0.1 3.9 0.1 1.3 0 2.6 0 3.9-0.1v0.3z" fill="#4F2F05" /><path d="M550.3 624.8v62.4c-1.3 0-2.6 0-3.9-0.1-6.8-0.3-13.6-1.5-20.2-3.5-0.8 0-1.4-0.7-1.4-1.4 0-0.2 0-0.4 0.1-0.5l24.1-56c0.3-0.6 0.8-0.9 1.3-0.9z" fill="#23A399" /><path d="M391.1 451.3c0.2 0.5-0.2 1.1-0.7 1.1-3.8 1.1-7.7 1.8-11.6 2-0.7 0-1.5 0.1-2.2 0.1v-35.9c0.3 0 0.6 0.2 0.7 0.5l13.8 32.2z" fill="#1B776E" /><path d="M378.8 454.6v5c0 1.2-1 2.2-2.2 2.2-1.2 0-2.2-1-2.2-2.2v-5-0.2c0.7 0 1.5 0.1 2.2 0.1 0.7 0 1.5 0 2.2-0.1v0.2z" fill="#4F2F05" /><path d="M376.5 418.6v35.9c-0.7 0-1.5 0-2.2-0.1-3.9-0.2-7.8-0.8-11.6-2-0.5 0-0.8-0.4-0.8-0.8 0-0.1 0-0.2 0.1-0.3l13.9-32.3c0-0.3 0.3-0.4 0.6-0.4z" fill="#23A399" /><path d="M167 505.6c0.1 0.3-0.1 0.6-0.4 0.6-2 0.6-4 0.9-6 1h-1.1v-18.4c0.2 0 0.3 0.1 0.4 0.2l7.1 16.6z" fill="#1B776E" /><path d="M160.6 507.3v2.6c0 0.6-0.5 1.2-1.2 1.2-0.6 0-1.1-0.5-1.1-1.2v-2.6-0.1h1.1c0.5 0 0.9 0 1.2 0.1 0-0.1 0 0 0 0z" fill="#4F2F05" /><path d="M159.5 488.8v18.4h-1.1c-2-0.1-4-0.4-6-1-0.2 0-0.4-0.2-0.4-0.4v-0.2l7.1-16.6c0.1-0.1 0.2-0.2 0.4-0.2z" fill="#23A399" /><path d="M283.6 441.5c0.1 0.3-0.1 0.6-0.4 0.6-2 0.6-4 0.9-6 1h-1.1v-18.4c0.2 0 0.3 0.1 0.4 0.2l7.1 16.6z" fill="#1B776E" /><path d="M277.3 443.2v2.6c0 0.6-0.5 1.2-1.2 1.2-0.6 0-1.1-0.5-1.1-1.2v-2.6-0.1h1.1c0.4 0 0.8 0 1.2 0.1 0-0.1 0 0 0 0z" fill="#4F2F05" /><path d="M276.1 424.7v18.4H275c-2-0.1-4-0.4-6-1-0.2 0-0.4-0.2-0.4-0.4v-0.2l7.1-16.6c0.1-0.1 0.3-0.2 0.4-0.2z" fill="#23A399" /><path d="M665.4 569.7c0.1 0.3-0.1 0.6-0.4 0.6-2 0.6-4 0.9-6 1h-1.1v-18.4c0.2 0 0.3 0.1 0.4 0.2l7.1 16.6z" fill="#1B776E" /><path d="M659.1 571.4v2.6c0 0.6-0.5 1.2-1.2 1.2-0.6 0-1.1-0.5-1.1-1.2v-2.6-0.1h1.1c0.3 0 0.8 0 1.2 0.1 0-0.1 0 0 0 0z" fill="#4F2F05" /><path d="M657.9 552.9v18.4h-1.1c-2-0.1-4-0.4-6-1-0.2 0-0.4-0.2-0.4-0.4v-0.2l7.1-16.6c0.1-0.1 0.3-0.2 0.4-0.2z" fill="#23A399" /><path d="M696.4 652.3c0.1 0.3-0.1 0.6-0.4 0.6-2 0.6-4 0.9-6 1h-1.1v-18.4c0.2 0 0.3 0.1 0.4 0.2l7.1 16.6z" fill="#1B776E" /><path d="M690 654v2.6c0 0.6-0.5 1.2-1.2 1.2s-1.1-0.5-1.1-1.2V654v-0.1h1.1c0.3 0 0.8 0 1.2 0.1 0-0.1 0 0 0 0z" fill="#4F2F05" /><path d="M688.9 635.5v18.4h-1.1c-2-0.1-4-0.4-6-1-0.2 0-0.4-0.2-0.4-0.4v-0.2l7.1-16.6c0.1-0.1 0.2-0.2 0.4-0.2z" fill="#23A399" /><path d="M266.7 512.9c0.1 0.3-0.1 0.6-0.4 0.6-2 0.6-4 0.9-6 1h-1.1v-18.4c0.2 0 0.3 0.1 0.4 0.2l7.1 16.6z" fill="#1B776E" /><path d="M260.3 514.6v2.6c0 0.6-0.5 1.2-1.2 1.2-0.6 0-1.1-0.5-1.1-1.2v-2.6-0.1h1.1c0.3 0 0.9 0 1.2 0.1z" fill="#4F2F05" /><path d="M259.2 496.1v18.4h-1.1c-2-0.1-4-0.4-6-1-0.2 0-0.4-0.2-0.4-0.4v-0.2l7.1-16.6c0.1-0.1 0.2-0.2 0.4-0.2z" fill="#23A399" /><path d="M474.6 677c0.1 0.3-0.1 0.6-0.4 0.6-2 0.6-4 0.9-6 1h-1.1v-18.4c0.2 0 0.3 0.1 0.4 0.2l7.1 16.6z" fill="#1B776E" /><path d="M468.3 678.7v2.6c0 0.6-0.5 1.2-1.2 1.2s-1.1-0.5-1.1-1.2v-2.6-0.1h1.1c0.3 0 0.8 0 1.2 0.1 0-0.1 0 0 0 0z" fill="#4F2F05" /><path d="M467.1 660.2v18.4H466c-2-0.1-4-0.4-6-1-0.2 0-0.4-0.2-0.4-0.4v-0.2l7.1-16.6c0.1-0.1 0.3-0.2 0.4-0.2z" fill="#23A399" /><path d="M584 601.5c0.1 0.3-0.1 0.6-0.4 0.6-2 0.6-4 0.9-6 1h-1.1v-18.4c0.2 0 0.3 0.1 0.4 0.2l7.1 16.6z" fill="#1B776E" /><path d="M577.7 603.2v2.6c0 0.6-0.5 1.2-1.2 1.2s-1.1-0.5-1.1-1.2v-2.6-0.1h1.1c0.3 0 0.8 0 1.2 0.1 0-0.1 0-0.1 0 0z" fill="#4F2F05" /><path d="M576.5 584.7v18.4h-1.1c-2-0.1-4-0.4-6-1-0.2 0-0.4-0.2-0.4-0.4v-0.2l7.1-16.6c0.1-0.2 0.3-0.2 0.4-0.2z" fill="#23A399" /><path d="M430.9 523.7s23.6 8 48.4 0c0 0 0 9.5-24.2 9.5-23.5 0.1-24.2-9.5-24.2-9.5z" fill="#EDD83A" /><path d="M430.9 523.7s25.6-3 48.4 0c0 0-22.2 8.1-48.4 0z" fill="#EFEFEF" /></svg>