<?xml version="1.0" standalone="no"?><!DOCTYPE svg PUBLIC "-//W3C//DTD SVG 1.1//EN" "http://www.w3.org/Graphics/SVG/1.1/DTD/svg11.dtd"><svg class="icon" width="64px" height="63.02px" viewBox="0 0 1040 1024" version="1.1" xmlns="http://www.w3.org/2000/svg"><path d="M8.192 8.062992h1007.874016v1011.905512H8.192z" fill="#EED7D7" /><path d="M1016.066016 1015.937008V303.370079L884.03452 114.897638c-44.346457-62.488189-154.204724-62.488189-197.543307 0L104.947906 945.385827c-16.125984 23.181102-19.149606 48.377953-12.094489 70.551181H1016.066016z" fill="#DCC6C7" /><path d="M1016.066016 311.433071l-117.92126-39.307087c-50.393701-17.133858-176.377953-17.133858-226.771654 0l-122.96063 41.322835-143.11811 203.590551-8.062992 15.11811H1016.066016V311.433071z" fill="#C7BAB3" /><path d="M1016.066016 469.669291c-244.913386-23.181102-481.76378 4.031496-592.629922 21.165355L217.829795 784.125984c183.433071-19.149606 518.047244 11.086614 798.236221 44.346457V469.669291z" fill="#515E41" /><path d="M1016.066016 1019.968504V827.464567C735.877039 794.204724 401.262866 763.968504 217.829795 783.11811l-112.881889 161.259843c-17.133858 25.19685-19.149606 52.409449-10.078741 75.590551H1016.066016z" fill="#2C352C" /><path d="M406.302236 1015.937008c42.330709-58.456693 69.543307-136.062992 69.543307-231.811024 0-114.897638-23.181102-221.732283-61.480315-308.409449-61.480315-140.094488-164.283465-231.811024-280.188976-231.811023-44.346457 0-86.677165 13.102362-125.984252 38.299212V1015.937008h398.110236z" fill="#7A8340" /><path d="M406.302236 1014.929134c42.330709-58.456693 69.543307-136.062992 69.543307-231.811024 0-87.685039-13.102362-170.330709-36.283464-242.897638C433.514835 522.07874 158.365228 380.976378 8.192 353.76378v661.165354h398.110236z" fill="#3B4C35" /><path d="M400.254992 1024c17.133858-22.173228 32.251969-47.370079 44.346457-75.590551 20.15748-47.370079 32.251969-101.795276 32.251968-165.291339 0-56.440945-274.141732-140.094488-467.653543-183.433071v423.307087h391.055118v1.007874z" fill="#283324" /><path d="M134.176252 1015.937008c2.015748-11.086614 3.023622-23.181102 5.03937-36.283465 5.03937-47.370079 8.062992-101.795276 8.062992-165.291338 0-62.488189-88.692913-156.220472-140.094488-194.519685V1015.937008h126.992126z" fill="#2C391E" /><path d="M8.192 821.417323v86.677165c7.055118-5.03937 13.102362-10.07874 19.149606-17.133858 8.062992-9.070866 10.07874-14.110236 27.212599-46.362205 13.102362-25.19685 25.19685-45.354331 32.251968-58.456693-35.275591 10.07874-61.480315 25.19685-78.614173 35.275591z" fill="#49522E" /><path d="M292.412472 1018.96063l30.236221-147.149606-9.070866-2.015748-30.236221 149.165354z" fill="#A97C50" /><path d="M431.499087 1018.96063c5.03937-2.015748 9.070866-4.031496 14.110236-6.047244 14.110236-7.055118 9.070866-19.149606 45.354331-49.385827 28.220472-24.188976 59.464567-21.165354 74.582677-33.259842-48.377953-8.062992-94.740157 48.377953-119.937008 57.448818-45.354331 17.133858-70.551181 0-114.897638 31.244095h100.787402z" fill="#2C3B28" /><path d="M56.569953 955.464567c-16.125984-7.055118-32.251969-9.070866-48.377953-7.055118v71.559055c13.102362-6.047244 24.188976-10.07874 34.267717-15.11811 14.110236-6.047244 17.133858 6.047244 55.43307-21.165355 29.228346-22.173228 60.472441-16.125984 76.598426-27.212598-47.370079-11.086614-93.732283 10.07874-117.92126-1.007874z" fill="#807B43" /><path d="M90.837669 919.181102c-26.204724-18.141732-53.417323-21.165354-82.645669-12.094488v73.574803c26.204724-10.07874 43.338583-12.094488 60.472441-15.11811 15.11811-3.023622 16.125984 10.07874 58.456693-10.07874 33.259843-15.11811 62.488189-4.031496 79.622047-11.086614-44.346457-21.165354-93.732283-10.07874-115.905512-25.196851z" fill="#516236" /><path d="M19.278614 708.535433c-3.023622 7.055118-7.055118 12.094488-11.086614 17.133858v135.055118c3.023622-6.047244 6.047244-11.086614 9.070866-18.141732 26.204724-62.488189 10.07874-110.866142 2.015748-134.047244z" fill="#3F4C2C" /><path d="M8.192 0h1007.874016V8.062992H8.192zM0.129008 8.062992H8.192v1007.874016h-8.062992zM1016.066016 8.062992h8.062992v1007.874016h-8.062992z" fill="#EED7D7" /><path d="M377.07389 780.094488c-11.086614 67.527559-67.527559 112.88189-67.527559 112.88189s-39.307087-63.496063-28.220473-131.023622S330.711685 663.181102 348.853417 649.070866c-7.055118 40.314961 39.307087 64.503937 28.220473 131.023622z" fill="#B1AD5A" /><path d="M190.617197 833.511811c52.409449 11.086614 77.606299 58.456693 91.716535 125.984252 5.03937 24.188976 4.031496 45.354331 3.023622 59.464567-25.19685-15.11811-55.433071-21.165354-61.480315-41.322835-17.133858-53.417323-33.259843-72.566929-47.370078-94.740157-9.070866-13.102362-18.141732-5.03937-35.275591-50.393701-14.110236-35.275591-42.330709-48.377953-49.385827-67.527559 45.354331 19.149606 72.566929 63.496063 98.771654 68.535433z" fill="#2E3E2A" /><path d="M180.538457 783.11811c53.417323 0 86.677165 42.330709 111.874015 104.818898 9.070866 23.181102 12.094488 43.338583 13.102363 57.448819-27.212598-10.07874-58.456693-10.07874-67.527559-28.220473-26.204724-49.385827-45.354331-64.503937-63.496063-83.653543-11.086614-11.086614-18.141732-1.007874-43.338583-42.330709-19.149606-32.251969-50.393701-39.307087-60.472441-56.440945 48.377953 10.07874 83.653543 48.377953 109.858268 48.377953z" fill="#4C6939" /><path d="M468.790425 838.551181c-55.433071-26.204724-99.779528 4.031496-142.110236 62.488189-15.11811 21.165354-24.188976 43.338583-29.228346 57.448819 30.23622 2.015748 61.480315 17.133858 76.598425 2.015748 39.307087-42.330709 63.496063-50.393701 86.677165-62.488189 14.110236-7.055118 19.149606 8.062992 55.433071-26.204724 28.220472-26.204724 61.480315-20.15748 76.598425-33.259843-51.401575-13.102362-97.76378 13.102362-123.968504 0z" fill="#4C6939" /><path d="M300.475465 751.874016c13.102362 30.23622 32.251969 73.574803 21.165354 123.968504-4.031496 18.141732-11.086614 32.251969-16.125984 41.322834-12.094488-19.149606-21.165354-36.283465-28.220473-49.385826-17.133858-32.251969-26.204724-49.385827-29.228346-69.543308-2.015748-12.094488-1.007874-17.133858 1.007874-54.425196 2.015748-29.228346 3.023622-52.409449 4.031496-67.527559 24.188976 28.220472 39.307087 56.440945 47.370079 75.590551z" fill="#5D753C" /><path d="M483.908535 778.07874c-42.330709 11.086614-104.818898 28.220472-148.15748 84.661417-16.125984 20.15748-24.188976 40.314961-29.228346 53.417323 30.23622-3.023622 62.488189 4.031496 76.598425-11.086614 40.314961-42.330709 64.503937-53.417323 87.685039-67.527559 14.110236-8.062992 19.149606 3.023622 56.440945-31.244094 29.228346-27.212598 62.488189-27.212598 77.606299-41.322835-52.409449-2.015748-93.732283 6.047244-120.944882 13.102362z" fill="#728B42" /><path d="M431.499087 1018.96063c5.03937-2.015748 9.070866-4.031496 14.110236-6.047244 14.110236-7.055118 9.070866-19.149606 45.354331-49.385827 28.220472-24.188976 59.464567-21.165354 74.582677-33.259842-48.377953-8.062992-93.732283-2.015748-117.92126 8.062992C401.262866 955.464567 357.924283 963.527559 310.554205 999.811024c-7.055118 6.047244-13.102362 13.102362-17.133859 20.15748l138.078741-1.007874z" fill="#7D804A" /><path d="M8.192 1015.937008h1007.874016v8.062992H8.192z" fill="#EED7D7" /></svg>