<?xml version="1.0" standalone="no"?><!DOCTYPE svg PUBLIC "-//W3C//DTD SVG 1.1//EN" "http://www.w3.org/Graphics/SVG/1.1/DTD/svg11.dtd"><svg class="icon" width="48px" height="47.95px" viewBox="0 0 1025 1024" version="1.1" xmlns="http://www.w3.org/2000/svg"><path d="M242.696176 369.071922l-100.706543 0 0-0.001648c-78.428223 0-141.98877 63.579041-141.98877 133.710877l0 288.368103c0 70.154175 63.560547 133.377441 141.98877 133.377441l100.865234-0.171448L242.696176 369.071922 242.696176 369.071922 242.696176 369.071922zM136.351449 882.676903c-51.135254 0-92.578125-46.357666-92.578125-106.211609L43.773324 514.376884c0-59.833344 41.442871-105.589111 92.578125-105.589111l0 0.001526 65.662109 0 0.103027 473.741486L136.351449 882.676903 136.351449 882.676903 136.351449 882.676903z" fill="#cdcdcd" /><path d="M896.115609 324.500511l-274.325195 0L621.790414 178.585777c0-70.663948-37.383789-125.062058-105.251465-125.062058-67.845215 0-101.76416 58.696362-109.339356 126.402145 0 0-26.817871 124.19043-93.20752 166.357849-8.32666 4.131378-16.138672 9.140961-23.313965 14.912659l0.003418 573.644775c21.916504 17.632568 58.285156 35.635132 88.604492 35.635132l508.30957 0c70.614746 0 136.405273-62.569153 136.405273-133.185242L1024.000863 462.987511C1024.000863 392.371422 966.730355 324.500511 896.115609 324.500511L896.115609 324.500511 896.115609 324.500511zM982.18934 818.451622c0 62.565979-40.09082 110.087463-102.65332 110.087463l-476.088379 0c-26.862793 0-51.538574-4.021912-70.95459-19.642761l-0.001465-528.557312c6.355957-5.111328 13.277344-9.55069 20.654297-13.210663 58.816895-37.35788 86.472168-149.274475 86.472168-149.274475 6.711426-59.98587 26.632324-122.394745 77.608887-122.394745 60.129883 0 64.43457 58.601387 64.43457 121.206986l0 149.35878 297.871094 0c62.562988 0 102.655273 40.049225 102.655273 102.612091l0 349.814636L982.18934 818.451622 982.18934 818.451622 982.18934 818.451622z" fill="#cdcdcd" /></svg>