<?xml version="1.0" standalone="no"?><!DOCTYPE svg PUBLIC "-//W3C//DTD SVG 1.1//EN" "http://www.w3.org/Graphics/SVG/1.1/DTD/svg11.dtd"><svg class="icon" width="64px" height="64.00px" viewBox="0 0 1024 1024" version="1.1" xmlns="http://www.w3.org/2000/svg"><path d="M685.390537 964.578656c-8.29185 0.001023-16.555048-3.338025-22.608927-9.921977l-165.274184-179.783643H179.633728c-68.518536 0-124.264165-55.744605-124.264165-124.264165V180.974771c0-68.51956 55.744605-124.263142 124.264165-124.263141h662.706397c68.51956 0 124.264165 55.744605 124.264165 124.263141v469.633077c0 68.51956-55.744605 124.264165-124.264165 124.264165H712.140785c-16.954137 0-30.699186-13.745049-30.699186-30.699186s13.745049-30.699186 30.699186-30.699186h130.19934c34.664497 0 62.865793-28.201296 62.865793-62.865793V180.974771c0-34.664497-28.201296-62.86477-62.865793-62.86477H179.633728c-34.664497 0-62.865793 28.201296-62.865793 62.86477v469.633077c0 34.664497 28.201296 62.865793 62.865793 62.865793h331.352687a30.702256 30.702256 0 0 1 22.600741 9.921977l174.395935 189.706643c11.474332 12.482289 10.657734 31.902594-1.823531 43.377949a30.600949 30.600949 0 0 1-20.769023 8.098446z" fill="#cdcdcd" /><path d="M459.529463 364.333846h102.915951v102.915951H459.529463zM258.375094 364.333846h102.915951v102.915951H258.375094zM660.682809 364.333846h102.915951v102.915951H660.682809z" fill="#cdcdcd" /></svg>