<?xml version="1.0" standalone="no"?><!DOCTYPE svg PUBLIC "-//W3C//DTD SVG 1.1//EN" "http://www.w3.org/Graphics/SVG/1.1/DTD/svg11.dtd"><svg class="icon" width="48px" height="48.00px" viewBox="0 0 1024 1024" version="1.1" xmlns="http://www.w3.org/2000/svg"><path d="M658.5082311111112 341.89653333333337c0-81.22254222222223-66.08213333333333-147.3024-147.3024-147.3024-81.22254222222223 0-147.3024 66.07985777777779-147.3024 147.3024S429.98328888888886 489.1989333333333 511.20583111111114 489.1989333333333c81.22140444444445 0 147.3024-66.07985777777779 147.3024-147.3024z" fill="#cdcdcd" /><path d="M873.4173866666667 152.09472000000005C777.1010844444445 55.77841777777775 649.0396444444445 2.7340800000000627 512.8283022222222 2.7340800000000627c-136.21475555555554 0-264.27505777777776 53.045475555555555-360.59136 149.36177777777777C55.91950222222226 248.4110222222222 2.8763022222222503 376.47246222222225 2.8763022222222503 512.68608c0 136.2113422222222 53.04433777777778 264.27392 149.36064 360.5902222222222 96.31857777777778 96.31857777777778 224.37887999999995 149.36291555555556 360.59136 149.36291555555556 136.2113422222222 0 264.27392-53.04433777777778 360.5902222222222-149.36291555555556 96.31857777777778-96.31630222222223 149.36291555555556-224.37887999999995 149.36291555555556-360.5902222222222-0.002275555555555556-136.21361777777778-53.045475555555555-264.27392-149.36405333333332-360.59136z m-109.99580444444445 646.6286933333334c-12.572444444444445 0-22.765795555555556-10.19335111111111-22.765795555555556-22.764657777777774 0-126.52088888888886-102.93020444444443-229.45109333333332-229.44995555555553-229.45109333333332s-229.44995555555553 102.93020444444443-229.44995555555553 229.45109333333332c0 12.572444444444445-10.192213333333333 22.764657777777774-22.765795555555556 22.764657777777774-12.572444444444445 0-22.764657777777774-10.19335111111111-22.764657777777774-22.764657777777774 0-121.75473777777778 79.54887111111111-225.2640711111111 189.39676444444441-261.3293511111111-63.495964444444446-31.58926222222222-107.25034666666667-97.13208888888889-107.25034666666667-172.73400888888887 0-106.32760888888888 86.50524444444446-192.83399111111112 192.83399111111112-192.83399111111112s192.83399111111112 86.50524444444446 192.83399111111112 192.83399111111112c0 75.60078222222222-43.754382222222226 141.1436088888889-107.25034666666667 172.73400888888887 109.84789333333333 36.06528 189.3979022222222 139.57347555555555 189.3979022222222 261.3293511111111 0 12.572444444444445-10.19448888888889 22.764657777777774-22.766933333333334 22.764657777777774z" fill="#cdcdcd" /></svg>