<?xml version="1.0" standalone="no"?><!DOCTYPE svg PUBLIC "-//W3C//DTD SVG 1.1//EN" "http://www.w3.org/Graphics/SVG/1.1/DTD/svg11.dtd"><svg class="icon" width="48px" height="48.00px" viewBox="0 0 1024 1024" version="1.1" xmlns="http://www.w3.org/2000/svg"><path d="M862.439906 256.211313l-126.916575 0.025583 0-64.929802c0-35.040051-28.404933-63.444984-63.444984-63.444984L351.92063 127.862109c-35.040051 0-63.444984 28.404933-63.444984 63.444984l0 65.017806-127.128399 0.025583c-18.531052 0.004093-33.55114 15.029298-33.54807 33.561373 0.004093 18.531052 15.029298 33.55114 33.561373 33.54807l701.091636-0.13917c18.531052-0.004093 33.55114-15.029298 33.54807-33.561373C895.997186 271.228331 880.970958 256.208243 862.439906 256.211313zM355.723236 227.855498c0-18.08489 14.660908-32.745798 32.745798-32.745798l247.060909 0c18.08489 0 32.745798 14.660908 32.745798 32.745798l0 28.3947-312.552505 0.062422L355.723236 227.855498z" fill="#cdcdcd" /><path d="M427.33011 767.634168c18.531052-0.004093 33.55114-15.029298 33.54807-33.561373l-0.13917-316.425719c-0.004093-18.531052-15.029298-33.55114-33.561373-33.54807-18.531052 0.004093-33.55114 15.029298-33.54807 33.561373l0.13917 316.425719C393.77283 752.618173 408.799058 767.638261 427.33011 767.634168z" fill="#cdcdcd" /><path d="M596.820316 767.634168c18.531052-0.004093 33.55114-15.029298 33.54807-33.561373l-0.13917-316.425719c-0.004093-18.531052-15.029298-33.55114-33.561373-33.54807-18.531052 0.004093-33.55114 15.029298-33.54807 33.561373l0.13917 316.425719C563.263036 752.618173 578.289264 767.638261 596.820316 767.634168z" fill="#cdcdcd" /><path d="M799.719422 417.648099c-0.004093-18.531052-15.029298-33.55114-33.561373-33.54807-18.531052 0.004093-33.55114 15.029298-33.54807 33.561373l0.008186 21.61018-0.008186 0 0 357.030509c0 18.08489-14.660908 32.745798-32.745798 32.745798L324.133773 829.04789c-18.08489 0-32.745798-14.660908-32.745798-32.745798L291.387975 442.3415l-0.128937 0-0.010233-24.693402c-0.004093-18.531052-15.029298-33.55114-33.561373-33.54807-18.531052 0.004093-33.55114 15.029298-33.54807 33.561373l0.010233 24.680099-0.010233 0 0 390.508995c0 35.040051 28.404933 63.444984 63.444984 63.444984l448.829262 0c35.040051 0 63.444984-28.404933 63.444984-63.444984L799.858592 439.271582l-0.130983 0L799.719422 417.648099z" fill="#cdcdcd" /></svg>