<?xml version="1.0" standalone="no"?><!DOCTYPE svg PUBLIC "-//W3C//DTD SVG 1.1//EN" "http://www.w3.org/Graphics/SVG/1.1/DTD/svg11.dtd"><svg class="icon" width="64px" height="64.00px" viewBox="0 0 1024 1024" version="1.1" xmlns="http://www.w3.org/2000/svg"><path d="M956.4 364.4L852.3 112.7c-3.2-7.9-10.9-13-19.4-13H191.1c-8.5 0-16.2 5.1-19.4 13L67.6 364.4c-2.7 6.5-2 13.9 1.9 19.7 0.1 0.1 0.2 0.2 0.2 0.3 0.8 1.9 1.8 3.6 3.1 5.2l422.8 526.8c4 5 10 7.9 16.4 7.9 6.4 0 12.4-2.9 16.4-7.9l422.8-526.8c1.3-1.6 2.3-3.4 3.1-5.2 0.1-0.1 0.2-0.2 0.2-0.3 3.9-5.9 4.6-13.3 1.9-19.7z m-50.8-13H572.9l247.5-206 85.2 206z m-393.6-4L265 141.7h494L512 347.4z m-308.4-202l247.5 206H118.4l85.2-206zM491 397.5v446.1L133 397.5h358z m42 446v-446h358l-358 446z" fill="#cdcdcd" /></svg>