<?xml version="1.0" standalone="no"?><!DOCTYPE svg PUBLIC "-//W3C//DTD SVG 1.1//EN" "http://www.w3.org/Graphics/SVG/1.1/DTD/svg11.dtd"><svg class="icon" width="64px" height="64.00px" viewBox="0 0 1024 1024" version="1.1" xmlns="http://www.w3.org/2000/svg"><path d="M362.112 810.154667a27.733333 27.733333 0 0 1-27.306667-28.032 27.733333 27.733333 0 0 1 27.306667-28.074667h84.864a92.373333 92.373333 0 0 1-84.864 56.106667z m247.68-287.061334a37.290667 37.290667 0 0 0 52.650667-0.341333 37.205333 37.205333 0 0 0-0.384-52.650667c-37.717333-37.162667-91.605333-57.258667-160.981334-76.074666-1.621333-0.384-3.242667-0.042667-4.821333-0.298667-1.706667-0.213333-3.157333-0.981333-4.906667-0.981333-0.981333 0-1.792 0.512-2.688 0.554666a40.746667 40.746667 0 0 0-7.210666 1.450667c-2.304 0.64-4.522667 1.237333-6.613334 2.304a39.893333 39.893333 0 0 0-6.016 4.010667c-1.792 1.450667-3.584 2.730667-5.12 4.48-1.536 1.749333-2.688 3.754667-3.925333 5.802666a38.101333 38.101333 0 0 0-3.328 6.741334c-0.256 0.810667-0.896 1.408-1.109333 2.218666-0.426667 1.578667-0.085333 3.157333-0.298667 4.778667-0.256 1.706667-0.981333 3.157333-0.981333 4.906667v249.6H362.112a102.272 102.272 0 0 0-101.76 102.528 102.272 102.272 0 0 0 101.76 102.485333c91.904 0 166.656-74.794667 166.656-167.808v-37.205333h-0.213333v-199.381334c32.682667 10.965333 62.378667 24.277333 81.237333 42.88zM474.965333 128C348.586667 128 245.930667 229.930667 243.925333 355.882667A187.306667 187.306667 0 0 0 128 528.085333v11.904c0 53.589333 23.338667 104.746667 63.914667 140.16a37.162667 37.162667 0 0 0 48.938666-56.106666 111.786667 111.786667 0 0 1-38.4-84.096v-11.904c0-52.266667 37.205333-98.218667 88.490667-109.226667 1.92-0.384 3.413333-1.536 5.205333-2.218667 2.389333-0.896 4.736-1.621333 6.869334-2.986666 2.005333-1.28 3.584-2.986667 5.290666-4.608 1.706667-1.621333 3.541333-3.114667 4.906667-5.12 1.408-1.92 2.176-4.053333 3.157333-6.186667 1.024-2.176 2.090667-4.266667 2.688-6.656 0.554667-2.346667 0.512-4.778667 0.597334-7.253333 0.042667-1.92 0.682667-3.754667 0.426666-5.76l-0.853333-6.570667c-0.469333-3.925333-1.194667-7.893333-1.194667-12.074667a157.098667 157.098667 0 0 1 156.885334-156.928c65.365333 0 124.373333 41.685333 146.901333 103.722667 5.589333 15.488 20.48 24.533333 36.096 24.064 91.178667 0.426667 163.584 72.874667 163.584 161.877333a161.578667 161.578667 0 0 1-161.408 161.450667 37.205333 37.205333 0 0 0 0 74.410667 236.117333 236.117333 0 0 0 235.861333-235.904c0-122.666667-94.464-222.549333-214.272-233.685334C643.242667 179.712 563.285333 128 474.965333 128z" fill="#cdcdcd" /></svg>