<?xml version="1.0" standalone="no"?><!DOCTYPE svg PUBLIC "-//W3C//DTD SVG 1.1//EN" "http://www.w3.org/Graphics/SVG/1.1/DTD/svg11.dtd"><svg class="icon" width="64px" height="64.00px" viewBox="0 0 1024 1024" version="1.1" xmlns="http://www.w3.org/2000/svg"><path d="M488.533 714.667c6.4 6.4 14.934 8.533 23.467 8.533s14.933-4.266 21.333-8.533l160-160c12.8-12.8 14.934-32 2.134-44.8s-34.134-12.8-46.934 0l-93.866 93.867v-526.934c0-17.066-19.2-32-42.667-32s-42.667 14.934-42.667 32v529.067l-96-91.733c-12.8-12.8-32-17.067-44.8-4.267s-10.666 32 2.134 44.8l157.866 160z" fill="#1296db" /><path d="M919.467 162.134h-172.8c-17.067 0-32 14.933-32 32s14.933 32 32 32h170.666v678.4c0 2.133 0 4.266-2.133 6.4h-808.533v-684.8h149.333c17.067 0 32-14.934 32-32s-14.933-32-32-32h-166.4c-14.933 0-25.6 6.4-32 12.8-14.933 14.933-12.8 36.266-12.8 53.333l-2.133 678.4c0 17.067 0 36.267 14.933 53.333 6.4 6.4 17.067 12.8 32 12.8h829.867c36.266 0 61.866-36.266 61.866-70.4v-672c0-36.266-27.733-68.266-61.866-68.266z" fill="#1296db" /></svg>