<?xml version="1.0" standalone="no"?><!DOCTYPE svg PUBLIC "-//W3C//DTD SVG 1.1//EN" "http://www.w3.org/Graphics/SVG/1.1/DTD/svg11.dtd"><svg class="icon" width="64px" height="64.00px" viewBox="0 0 1024 1024" version="1.1" xmlns="http://www.w3.org/2000/svg"><path d="M857.6 64H173.056C76.8 64 0 134.656 0 230.4v563.2c0 96.256 76.8 166.4 173.056 166.4h678.4c96.256 0 173.056-70.656 173.056-166.4V230.4c-0.512-95.744-77.312-166.4-166.912-166.4z m102.4 729.6c0 57.856-45.056 102.4-102.4 102.4H173.056c-57.856 0-102.4-45.056-102.4-102.4V403.456l332.8 217.6c38.4 25.6 83.456 38.4 121.856 38.4s76.8-12.8 109.056-38.4l326.656-224.256V793.6z m0-486.912L595.456 563.2c-45.056 32.256-115.2 32.256-160.256 0L70.656 320V230.4c0-57.856 45.056-102.4 102.4-102.4h685.056c57.856 0 102.4 45.056 102.4 102.4v76.288z" fill="#515151" /></svg>