<?xml version="1.0" standalone="no"?><!DOCTYPE svg PUBLIC "-//W3C//DTD SVG 1.1//EN" "http://www.w3.org/Graphics/SVG/1.1/DTD/svg11.dtd"><svg class="icon" width="48px" height="48.00px" viewBox="0 0 1024 1024" version="1.1" xmlns="http://www.w3.org/2000/svg"><path d="M511.3 254.5C347.8 254.5 220.4 352 64 510.1c134.6 135.1 247.6 255.6 447.3 255.6 199.5 0 346.2-152.5 447.3-252.7-103.3-117.4-250-258.5-447.3-258.5m0 437.9c-98.6 0-178.9-81.8-178.9-182.3 0-100.6 80.3-182.3 178.9-182.3s178.9 81.8 178.9 182.3c0 100.6-80.2 182.3-178.9 182.3m0 0z" fill="#ffffff" /><path d="M511.3 446.1c0-15.9 5.8-30.2 15.2-41.4-4.9-0.9-10.1-1.1-15.2-1.1-57.5 0-104.4 47.6-104.4 106.4s47 106.4 104.4 106.4c57.5 0 104.4-47.6 104.4-106.4 0-4.7-0.4-9.2-0.9-13.9-11 8.5-24.6 13.9-39.6 13.9-35.2 0.1-63.9-28.5-63.9-63.9m0 0z" fill="#ffffff" /></svg>