<?xml version="1.0" standalone="no"?><!DOCTYPE svg PUBLIC "-//W3C//DTD SVG 1.1//EN" "http://www.w3.org/Graphics/SVG/1.1/DTD/svg11.dtd"><svg class="icon" width="48px" height="48.00px" viewBox="0 0 1024 1024" version="1.1" xmlns="http://www.w3.org/2000/svg"><path d="M220.732775 911.181515c-60.346413 0-109.442598-49.093115-109.442598-109.434411L111.290177 232.466516c0-29.583782 12.098549-60.282968 33.194006-84.228333 21.552875-24.462135 50.033533-38.492686 78.141708-38.492686l313.910433 0 0 49.047066L222.625892 158.792563c-33.763988 0-62.287625 28.526707-62.287625 62.292742l-0.947582 580.654636c0 33.827433 27.51875 61.341067 61.34209 61.341067l580.662823-0.947582c33.755802 0 62.281485-28.526707 62.281485-62.291718L863.677083 485.940484l49.053206 0 0 313.901223c0 28.110221-14.030551 56.593949-38.493709 78.145801-23.944342 21.094434-54.644551 33.194006-84.231403 33.194006L220.732775 911.181515zM397.124158 622.421902c-6.757914 0-13.104459-2.499937-17.865903-7.039323-4.702092-4.485151-7.293103-10.434653-7.293103-16.750499s2.591011-12.265348 7.294127-16.752546l436.59052-416.404782-3.078105-7.607258-127.166261 0.924045c-6.584975 0-12.725836-2.52859-17.311271-7.120165-4.640694-4.647857-7.191796-10.82658-7.18361-17.397229 0.021489-13.504572 11.028171-24.508183 24.534789-24.529673l201.922872 0c7.05365 0 13.547551 2.63399 18.326391 7.417947 4.41352 4.418636 6.841825 10.231015 6.834662 16.366759L912.729266 336.834538c-0.022513 13.500479-11.030218 24.506137-24.534789 24.524556-6.609535 0-12.750395-2.529613-17.334807-7.120165-4.640694-4.64888-7.191796-10.82658-7.18361-17.397229l-0.857531-138.312112-7.458879-3.166109L414.986991 615.383602C410.227594 619.921965 403.883095 622.421902 397.124158 622.421902z" fill="#ffffff" /></svg>