<?xml version="1.0" standalone="no"?><!DOCTYPE svg PUBLIC "-//W3C//DTD SVG 1.1//EN" "http://www.w3.org/Graphics/SVG/1.1/DTD/svg11.dtd"><svg class="icon" width="64px" height="64.00px" viewBox="0 0 1024 1024" version="1.1" xmlns="http://www.w3.org/2000/svg"><path d="M845.44 300.8l-37.12 0c18.56-14.08 32.64-30.72 39.68-51.84l0.64-1.28c12.16-43.52-1.92-81.92-39.04-103.04-59.52-33.92-176-16-253.44 65.92-12.16 12.8-11.52 33.28 1.28 45.44 12.8 12.16 33.28 11.52 45.44-1.28 58.24-60.8 142.72-72.96 175.36-54.4 7.04 3.84 14.72 10.24 9.6 28.8-16 44.16-141.44 65.92-228.48 67.84-1.28-6.4-4.48-12.8-10.24-17.28-4.48-3.84-108.16-96.64-202.88-134.4-62.08-24.32-117.12-23.04-151.04 4.48-22.4 17.92-32 44.16-27.52 72.32 5.12 30.08 26.24 57.6 59.52 78.72l-49.28 0c-38.4 0-69.76 31.36-69.76 69.76l0 85.12c0 24.32 12.16 45.44 30.72 57.6l0 288.64c0 51.84 42.24 94.08 94.08 94.08l555.52 0c51.84 0 94.08-42.24 94.08-94.08L882.56 513.92c19.2-12.16 31.36-33.92 31.36-58.24L913.92 370.56C915.2 332.16 883.84 300.8 845.44 300.8zM235.52 199.68c5.76-4.48 15.36-7.68 30.08-7.68 14.72 0 33.92 3.2 57.6 12.8 49.92 19.84 105.6 59.52 142.08 88.32-53.12-4.48-120.96-12.8-170.88-30.72-42.88-16-60.8-37.12-63.36-51.2C230.4 206.08 231.68 202.88 235.52 199.68zM172.8 370.56c0-3.2 2.56-5.76 5.76-5.76l666.88 0c3.2 0 5.76 2.56 5.76 5.76l0 85.12c0 3.2-2.56 5.76-5.76 5.76L178.56 461.44c-3.2 0-5.76-2.56-5.76-5.76L172.8 370.56zM819.2 801.92c0 16.64-13.44 30.08-30.08 30.08L233.6 832c-16.64 0-30.08-13.44-30.08-30.08L203.52 524.8 819.2 524.8 819.2 801.92z" fill="#cdcdcd" /></svg>