<?xml version="1.0" standalone="no"?><!DOCTYPE svg PUBLIC "-//W3C//DTD SVG 1.1//EN" "http://www.w3.org/Graphics/SVG/1.1/DTD/svg11.dtd"><svg class="icon" width="48px" height="24.00px" viewBox="0 0 2048 1024" version="1.1" xmlns="http://www.w3.org/2000/svg"><path d="M548.010667 546.304V75.264H715.946667v471.04h267.946666v130.986667H698.026667l-38.058667 62.037333h50.005333l274.005334 279.978667-233.984-1.962667-172.032-176.981333C451.413333 950.357333 272.042667 1010.005333 40.106667 1019.306667V870.4c202.666667-15.36 357.290667-79.616 463.957333-192.938667H46.08V546.304h502.016zM96 333.312l1.962667 2.986667h406.016c-9.386667 88.746667-41.301333 132.010667-96 130.048H96V333.312z m1.962667-205.994667l2.048 2.986667H506.026667c-9.386667 88.746667-41.386667 132.010667-96 130.048H97.962667V127.317333z m1049.002666 669.013334h166.058667l-49.066667 215.04H1093.12l53.930667-215.04z m851.029334-171.008v136.021333h-382.976l1.024 257.962667h-170.069334l1.024-182.016c-2.645333-50.602667-33.621333-75.946667-93.013333-75.946667H1064.106667V625.322667h382.976v-52.992h161.962666v52.992h389.12z m-262.997334 168.96l105.984 1.024c40.021333-0.682667 67.669333 13.994667 83.029334 44.032l58.026666 165.973333h-165.034666l-82.005334-210.944z m-505.002666-390.912c0 9.301333 9.642667 17.066667 29.013333 23.466666 19.285333 6.314667 38.997333 9.472 58.965333 9.472 26.709333 0 49.322667-2.133333 68.010667-6.485333a465.92 465.92 0 0 0 70.997333-24.490667c-28.672-8.704-52.309333-16.213333-70.997333-22.528a213.077333 213.077333 0 0 0-68.010667-9.472c-19.968 0-39.68 3.157333-58.965333 9.472-19.370667 6.4-29.013333 13.226667-29.013333 20.48zM1175.04 75.349333h157.013333l-15.018666 25.941334h605.013333c57.258667 18.005333 75.264 59.392 53.930667 124.074666l-217.002667 164.949334a476.16 476.16 0 0 0 125.013333 27.050666h123.989334v135.936h-153.941334c-84.736-9.301333-145.066667-21.674667-181.077333-36.949333l-71.936-32-147.029333 58.026667c-66.645333 15.36-132.266667 19.968-197.034667 13.994666a279.552 279.552 0 0 1-140.970667-45.056c-57.344-61.952-59.306667-123.989333-5.973333-186.026666 23.296-31.317333 68.010667-51.626667 133.973333-60.928a753.749333 753.749333 0 0 1 212.053334 5.973333l160 43.008 128-97.024h-501.077334c-33.962667 26.709333-88.32 57.002667-162.986666 91.050667l1.024-147.029334c32-21.333333 63.317333-49.664 94.037333-84.992z" fill="#ffffff" /></svg>