<?xml version="1.0" standalone="no"?><!DOCTYPE svg PUBLIC "-//W3C//DTD SVG 1.1//EN" "http://www.w3.org/Graphics/SVG/1.1/DTD/svg11.dtd"><svg class="icon" width="64px" height="64.00px" viewBox="0 0 1024 1024" version="1.1" xmlns="http://www.w3.org/2000/svg"><path d="M838.026 126.409H778.58V79.238c0-6.723-5.642-12.254-12.603-12.254h-34.219c-7.118 0-12.602 5.486-12.602 12.254v47.171H303.182V79.238c0-6.723-5.642-12.254-12.602-12.254h-34.22c-7.118 0-12.602 5.486-12.602 12.254v47.171h-59.446c-65.738 0-118.829 53.169-118.829 118.756v594.434c0 65.449 53.201 118.756 118.829 118.756h653.715c65.739 0 118.829-53.169 118.829-118.756V245.165c-0.001-65.449-53.203-118.756-118.83-118.756zM897.43 839.6c0 32.806-26.523 59.332-59.403 59.332H184.311c-32.757 0-59.403-26.652-59.403-59.332V364.108h772.521V839.6z m0-534.917H124.908v-59.518c0-32.806 26.523-59.332 59.403-59.332h59.446v47.172c0 6.723 5.642 12.254 12.602 12.254h34.22c7.118 0 12.602-5.486 12.602-12.254v-47.172h415.973v47.172c0 6.723 5.643 12.254 12.602 12.254h34.22c7.119 0 12.602-5.486 12.602-12.254v-47.172h59.446c32.757 0 59.403 26.652 59.403 59.332v59.518z" fill="#ffffff" /><path d="M536.919 632.707c-10.155 8.842-21.291 17.115-33.402 24.805a621.413 621.413 0 0 0-34.874 23.822c-23.255 15.718-41.59 34.221-55.013 55.504-13.431 21.29-20.308 46.171-20.63 74.66h234.787v-50.1H460.292c2.287-7.53 6.546-14.652 12.771-21.368 6.217-6.707 13.508-13.178 21.857-19.401 8.351-6.217 17.438-12.44 27.262-18.666a760.362 760.362 0 0 0 29.471-19.647 368.44 368.44 0 0 0 28.489-22.103c9.164-7.86 17.353-16.455 24.56-25.788 7.198-9.332 12.932-19.562 17.192-30.699 4.25-11.128 6.384-23.577 6.384-37.33 0-11.128-1.803-22.84-5.402-35.119-3.607-12.28-9.747-23.654-18.42-34.137-8.679-10.476-20.061-19.157-34.137-26.033-14.084-6.877-31.605-10.315-52.557-10.315-19.325 0-36.27 3.361-50.838 10.069-14.575 6.715-26.938 15.964-37.084 27.752-10.154 11.789-17.768 25.787-22.84 41.997-5.081 16.209-7.614 33.815-7.614 52.802h55.995c0.323-12.11 1.55-23.408 3.684-33.892 2.127-10.475 5.403-19.562 9.824-27.26 4.42-7.69 10.315-13.753 17.683-18.175 7.368-4.42 16.615-6.63 27.752-6.63 12.11 0 21.934 2.048 29.471 6.14 7.529 4.098 13.423 9.17 17.683 15.226 4.25 6.063 7.122 12.61 8.595 19.648 1.473 7.046 2.21 13.676 2.21 19.893-0.33 13.43-3.769 25.296-10.315 35.61-6.553 10.316-14.903 19.894-25.05 28.735z" fill="#ffffff" /></svg>