<?xml version="1.0" standalone="no"?><!DOCTYPE svg PUBLIC "-//W3C//DTD SVG 1.1//EN" "http://www.w3.org/Graphics/SVG/1.1/DTD/svg11.dtd"><svg class="icon" width="64px" height="64.00px" viewBox="0 0 1024 1024" version="1.1" xmlns="http://www.w3.org/2000/svg"><path d="M460.8 178.9952C460.8 150.8352 483.5328 128 512 128a51.2 51.2 0 0 1 51.2 50.9952v666.0096A50.944 50.944 0 0 1 512 896a51.2 51.2 0 0 1-51.2-50.9952V178.9952z m204.8 127.9744c0-28.16 22.7328-50.9696 51.2-50.9696a51.2 51.2 0 0 1 51.2 50.944v410.112c0 28.1344-22.7328 50.944-51.2 50.944a51.2 51.2 0 0 1-51.2-50.944V306.944zM870.4 435.2c0-28.288 22.7328-51.2 51.2-51.2 28.288 0 51.2 22.7072 51.2 51.2v153.6c0 28.288-22.7328 51.2-51.2 51.2-28.288 0-51.2-22.7072-51.2-51.2v-153.6zM51.2 435.2c0-28.288 22.7328-51.2 51.2-51.2 28.288 0 51.2 22.7072 51.2 51.2v153.6c0 28.288-22.7328 51.2-51.2 51.2-28.288 0-51.2-22.7072-51.2-51.2v-153.6z m204.8-128.256c0-28.1344 22.7328-50.944 51.2-50.944a51.2 51.2 0 0 1 51.2 50.944v410.112c0 28.1344-22.7328 50.944-51.2 50.944a51.2 51.2 0 0 1-51.2-50.944V306.944z" fill="#ffffff" /></svg>