<?xml version="1.0" standalone="no"?><!DOCTYPE svg PUBLIC "-//W3C//DTD SVG 1.1//EN" "http://www.w3.org/Graphics/SVG/1.1/DTD/svg11.dtd"><svg class="icon" width="64px" height="64.00px" viewBox="0 0 1024 1024" version="1.1" xmlns="http://www.w3.org/2000/svg"><path d="M832 857.6v-684.8c0-25.6-19.2-38.4-38.4-38.4h-627.2c-19.2 0-38.4 19.2-38.4 38.4v684.8c0 25.6 19.2 38.4 38.4 38.4h627.2c19.2 0 38.4-19.2 38.4-38.4z m-371.2-377.6l83.2-83.2c12.8-12.8 12.8-32 0-44.8-12.8-12.8-32-12.8-44.8 0l-134.4 134.4c-6.4 6.4-12.8 25.6-6.4 38.4 0 6.4 6.4 6.4 6.4 12.8l6.4 6.4 134.4 134.4c12.8 12.8 32 12.8 44.8 0 12.8-12.8 12.8-32 0-44.8l-76.8-76.8h364.8v-64h-377.6z m435.2 0h32c19.2 0 32 12.8 32 32s-12.8 32-32 32h-32v313.6c0 57.6-44.8 102.4-102.4 102.4h-627.2c-57.6 0-102.4-44.8-102.4-102.4v-684.8c0-57.6 44.8-102.4 102.4-102.4h627.2c57.6 0 102.4 44.8 102.4 102.4v307.2z m0 0v-128h-64v128h64z m0 64h-64v128h64v-128z" fill="#515151" /></svg>