<?xml version="1.0" standalone="no"?><!DOCTYPE svg PUBLIC "-//W3C//DTD SVG 1.1//EN" "http://www.w3.org/Graphics/SVG/1.1/DTD/svg11.dtd"><svg class="icon" width="64px" height="64.00px" viewBox="0 0 1024 1024" version="1.1" xmlns="http://www.w3.org/2000/svg"><path d="M467.9 334.4h397c17.2 0 31.1-13.9 31.1-31.1 0-17.2-13.9-31.1-31.1-31.1h-397c-17.2 0-31.1 13.9-31.1 31.1 0 17.2 13.9 31.1 31.1 31.1zM864.9 523.4H159.1c-17.2 0-31.1 13.9-31.1 31.1 0 17.2 13.9 31.1 31.1 31.1h705.8c17.2 0 31.1-13.9 31.1-31.1 0-17.1-13.9-31.1-31.1-31.1zM864.9 774.7H159.1c-17.2 0-31.1 13.9-31.1 31.1 0 17.2 13.9 31.1 31.1 31.1h705.8c17.2 0 31.1-13.9 31.1-31.1 0-17.2-13.9-31.1-31.1-31.1zM154.5 417.2l170.7-98.6c11.8-6.8 11.8-23.8 0-30.6l-170.7-98.6c-11.8-6.8-26.5 1.7-26.5 15.3v197.1c0 13.7 14.7 22.2 26.5 15.4z" fill="#2c2c2c" /></svg>