<?xml version="1.0" standalone="no"?><!DOCTYPE svg PUBLIC "-//W3C//DTD SVG 1.1//EN" "http://www.w3.org/Graphics/SVG/1.1/DTD/svg11.dtd"><svg class="icon" width="64px" height="28.79px" viewBox="0 0 2276 1024" version="1.1" xmlns="http://www.w3.org/2000/svg"><path d="M1305.351456 507.029126c-0.497087-1.491262-0.994175-2.982524-1.491262-5.467961-0.497087-1.98835-0.994175 0-1.491262-1.491262 0-0.994175-0.497087-0.994175-0.497087-1.491262-0.497087-5.965049-1.491262-12.427184-2.485437-19.386408-0.994175 0.994175 0 3.976699 0 6.462136-0.497087-0.994175 0-2.485437-0.994175-4.473786-0.497087 0.497087 0.497087 2.982524-0.497087 3.479611-1.98835-4.970874-3.479612-11.43301-5.965049-18.392233 0 1.98835 0 5.467961 0.994175 9.44466-1.98835-10.438835-5.467961-20.380583-9.44466-27.836893-0.497087 0.497087 0 2.485437 0.994174 4.970874-5.965049-14.912621-13.918447-27.339806-23.363106-37.778641 6.462136 10.935922 12.427184 22.368932 16.403883 34.299029 3.976699 11.930097 6.959223 24.357282 7.456311 36.287379-2.485437-12.924272-4.473786-24.854369-9.44466-36.784466-0.497087 0.497087 0.497087 1.98835 0.994174 3.479612-1.491262-2.982524-3.479612-8.450485-4.970873-11.930098-0.497087-0.994175 0 0.497087 0.497087 0.994175-4.473786-8.450485-8.450485-15.906796-12.924272-23.860194-4.970874-7.456311-10.438835-14.912621-17.398058-21.871845 0.994175 1.98835 5.467961 7.456311 8.450485 11.43301-0.497087 0-0.994175-0.994175-0.994174-0.497087 5.467961 7.456311 10.935922 15.906796 14.912621 24.854369 4.473786 8.947573 7.953398 18.392233 10.438835 27.836893-2.485437-5.467961-3.976699-10.438835-4.970874-13.421359 1.491262 5.965049 3.479612 12.427184 5.467961 18.88932 1.491262 6.959223 2.982524 13.918447 3.479612 19.883495-1.98835-12.924272-4.970874-24.357282-9.44466-35.293204-3.976699-10.935922-9.44466-21.374757-16.403884-30.819417 4.970874 8.450485 9.941748 18.392233 13.421359 28.33398-1.98835-2.982524 0.497087 3.479612 0.994175 5.965049-3.479612-8.947573-7.953398-18.392233-12.924272-26.842719-4.970874-8.947573-10.935922-17.398058-17.895145-24.357281 5.965049 7.953398 12.427184 17.398058 17.895145 27.836893 5.467961 10.438835 9.941748 21.374757 12.924272 32.31068-4.473786-13.421359-10.935922-27.836893-19.883495-41.258253-8.947573-13.421359-20.380583-26.345631-33.801942-36.287378 16.900971 13.918447 30.819417 31.813592 39.766991 50.702912-4.970874-7.953398-10.438835-15.906796-16.403884-23.363106-5.965049-7.456311-12.924272-14.912621-20.380582-20.87767 7.456311 7.953398 16.403883 17.398058 24.357281 28.831068 7.953398 10.935922 13.918447 23.363107 16.900971 35.293203-4.970874-12.924272-11.43301-25.848544-19.883495-37.281553-8.450485-11.930097-18.88932-22.368932-30.819418-31.316505-11.930097-8.947573-25.351456-15.906796-38.772815-20.380582-13.918447-4.473786-28.333981-6.959223-42.749515-6.462136 12.924272 0 25.848544 2.485437 38.275728 6.462136s24.357282 9.44466 35.293204 16.900971c10.935922 7.456311 20.380583 15.906796 28.831068 25.848543 8.450485 9.941748 14.912621 20.380583 20.380583 31.316505-8.450485-14.912621-19.386408-29.825243-33.304855-42.252427-13.421359-12.427184-29.825243-21.871845-46.726213-27.339806 9.44466 3.976699 21.374757 9.44466 32.807767 17.398058s21.871845 17.895146 29.825243 28.831068c-10.438835-12.427184-23.363107-23.860194-38.772816-32.807767-14.912621-8.947573-32.31068-15.409709-50.702913-17.895145-8.947573-1.491262-18.392233-1.98835-27.836893-1.491262-9.44466 0.497087-18.88932 1.98835-27.836893 4.473786-18.392233 4.970874-35.790291 13.421359-50.205825 25.351456-10.438835 8.450485-19.386408 17.895146-26.345631 28.831068-7.456311 10.935922-13.421359 22.368932-17.398059 34.299029-3.976699 10.935922-5.965049 22.368932-6.462136 33.801942-0.497087 10.935922 0.497087 22.368932 2.485437 32.807767 4.473786 20.87767 13.421359 39.269903 25.351457 54.679612-4.970874-4.473786-9.941748-11.43301-13.918447-19.386408-3.976699-7.953398-6.959223-16.403883-9.941748-22.866019-1.491262-3.479612-3.976699-3.976699-4.970873-8.450486 0.994175 6.959223 3.479612 12.924272 5.965048 19.386408 2.485437 5.965049 5.965049 12.427184 8.947573 18.88932-0.994175 0-1.98835-2.982524-2.982524-3.479611 5.467961 10.935922 11.930097 19.386408 18.88932 27.339805 7.456311 7.456311 15.409709 14.415534 24.357282 20.87767-7.953398-3.976699-16.403883-10.438835-23.860194-17.895145s-13.918447-16.403883-19.883496-24.854369c3.479612 6.959223 7.953398 12.924272 12.924272 18.88932 4.970874 5.467961 10.438835 10.935922 15.906796 16.403884-6.959223-3.976699-13.918447-10.935922-19.883495-18.889321-6.462136-7.953398-11.43301-16.403883-16.403883-23.860194 2.982524 7.456311 6.462136 12.924272 10.438835 18.392233s7.953398 10.438835 12.924272 15.906796c1.491262 1.98835-0.994175 0 0 1.491262 7.953398 8.947573 17.398058 16.403883 27.339805 22.86602 9.941748 6.462136 20.87767 10.935922 32.31068 14.912621-13.918447-2.982524-28.831068-9.44466-42.252427-19.386408-13.421359-9.44466-25.351456-21.871845-35.293204-34.796116 7.456311 11.930097 16.403883 22.368932 26.842718 30.819417 10.438835 8.450485 21.871845 15.409709 33.801942 21.374758-5.467961-1.491262-11.930097-4.473786-17.895146-7.953398-5.965049-3.479612-11.930097-7.953398-17.895145-12.427185 6.462136 6.462136 15.906796 11.930097 24.357281 16.900971-4.970874-1.491262-10.935922-4.970874-16.90097-8.947573-5.965049-3.976699-11.43301-8.947573-16.403884-13.421359 9.44466 9.941748 20.380583 17.895146 32.31068 24.357281 11.930097 6.462136 23.860194 10.438835 36.287378 13.42136-1.491262 0.497087-4.473786 0-7.45631-0.994175-3.479612-0.994175-6.959223-1.98835-9.941748-2.982524 5.965049 2.485437 12.924272 4.473786 19.386408 5.965048 6.959223 1.491262 13.918447 1.98835 20.87767 2.982525-8.947573 0.497087-18.88932-0.497087-29.328156-3.479612-9.941748-2.485437-19.883495-6.462136-29.328155-11.43301-18.88932-9.941748-36.287379-22.866019-49.708738-39.269903 9.941748 13.421359 21.871845 24.357282 34.796117 32.807767 13.421359 8.450485 27.339806 14.912621 42.749514 19.883495-14.415534-2.485437-30.32233-9.44466-44.737864-19.386407-14.415534-9.941748-27.836893-22.866019-38.275728-36.287379 6.959223 10.935922 15.906796 20.87767 25.848544 29.328155 9.941748 8.450485 20.87767 14.912621 31.813592 19.883495 8.947573 3.976699 16.403883 5.965049 24.854369 9.444661 1.491262 0 5.965049 0.994175 9.941747 2.485437-0.497087-0.994175-0.994175-0.497087 3.479612 0.497087 3.976699 0.994175 8.947573 1.491262 14.415534 1.988349 5.467961 0.497087 11.43301 0.497087 16.403884 0.497088-5.965049 0.994175-12.924272 1.491262-20.380583 0.497087-7.456311-0.497087-14.912621-1.98835-21.374757-2.982524-1.98835-0.994175-3.976699-0.994175-5.965049-1.491262-1.491262-0.497087-4.473786-1.491262-5.467961-0.994175l-0.994175-0.497087c-0.994175-0.497087-1.98835-0.994175-2.982524-0.994175 0.994175 0.497087 1.98835 0.994175 2.982524 0.994175 0.497087 0 0.497087 0.497087 0.497088 0.497087 7.953398 2.982524 15.409709 4.970874 22.866019 5.965049 7.456311 0.994175 14.912621 1.98835 23.363107 2.485436-9.941748 0.497087-20.87767 0-31.813592-2.485436s-22.368932-5.965049-33.304855-11.43301c-10.935922-5.467961-21.374757-11.930097-30.819417-19.883495-9.44466-7.953398-17.895146-16.403883-25.848544-25.351457 8.947573 12.924272 20.380583 23.860194 32.31068 32.807767 11.930097 8.947573 25.351456 15.409709 38.275728 19.883496 8.450485 2.982524 17.895146 4.473786 25.351456 6.462135l4.473787 1.491263c4.970874 0.994175 10.935922 1.491262 15.906796 1.491262 5.467961 0 11.43301 0.497087 15.906796-0.994175 1.491262 0 1.98835 0.497087 3.479611 0.497087 4.473786-1.491262 9.44466-1.98835 14.912622-2.485437 5.467961-0.497087 11.43301-1.491262 16.900971-2.982524 6.462136-1.491262 11.930097-4.473786 18.392233-7.45631 5.965049-2.982524 12.427184-5.965049 19.883495-8.947573-1.98835 4.473786-8.947573 8.450485-14.415534 11.930097-5.965049 3.479612-12.924272 6.959223-18.889321 9.941747-2.485437 1.491262-3.479612 2.485437-6.959223 3.976699-9.44466 3.479612-21.374757 5.467961-31.316505 7.953398 4.473786 0 6.959223-0.497087 11.930097-0.497087-11.43301 2.485437-23.860194 3.479612-37.281553 2.485437-12.924272-0.497087-26.842718-2.982524-39.76699-7.456311-12.924272-3.976699-25.351456-9.44466-37.281554-15.906796-11.930097-6.462136-22.866019-14.415534-32.807767-23.860194-1.98835-1.98835 0 1.491262-0.994174 0-2.485437-2.982524-5.467961-6.959223-7.456311-8.947573 4.970874 10.438835 14.912621 21.871845 26.842718 31.316505 11.930097 9.44466 25.351456 16.900971 37.281554 22.866019-10.438835-3.976699-21.374757-9.941748-31.813592-17.398058-10.438835-7.456311-20.380583-15.906796-28.831068-24.357281 5.467961 6.462136 11.43301 12.427184 17.398058 17.398058 6.462136 4.970874 12.924272 9.941748 20.380582 14.912621-3.976699-1.491262-8.947573-4.473786-13.421359-7.953398-4.970874-3.479612-9.44466-7.456311-13.918447-11.43301 1.98835 2.982524 7.953398 8.450485 12.924272 12.427185 11.930097 9.44466 25.848544 16.900971 40.761165 22.866019 14.912621 5.965049 29.825243 9.44466 43.74369 11.930097-12.427184-0.994175-25.848544-3.976699-39.269903-8.947572s-26.345631-11.43301-38.275728-19.386408c7.953398 5.965049 16.900971 10.438835 25.848543 14.415534 8.947573 3.976699 18.88932 7.456311 28.831068 10.438835-12.427184-1.98835-25.848544-6.462136-39.76699-13.421359 10.935922 6.959223 23.363107 11.930097 35.790291 15.409708 12.427184 3.479612 25.351456 4.970874 38.772816 6.462136-8.450485 0-18.392233-0.994175-28.333981-2.982524-9.941748-1.98835-19.883495-5.467961-29.328155-8.450485 13.918447 5.965049 28.333981 9.44466 42.749514 11.433009 14.912621 1.98835 29.825243 1.98835 44.737865 0.994175-10.438835 1.98835-22.866019 2.485437-35.293204 0.994175-12.427184-0.994175-25.351456-3.479612-37.778641-6.959224 9.44466 3.976699 19.883495 4.970874 30.819417 6.959224-2.982524 0.497087-7.456311-0.497087-11.930097-0.994175-4.473786-0.994175-8.947573-1.98835-12.924272-2.485437 11.930097 5.467961 25.848544 8.450485 40.264078 8.450486 14.415534 0.497087 28.831068-0.994175 43.743689-2.982525-8.450485 1.98835-17.895146 3.479612-27.836893 3.976699-9.941748 0.497087-20.380583 0-29.825243-0.994174 6.959223 1.98835 14.912621 2.485437 22.86602 2.485436 7.953398 0 16.403883-0.994175 24.854369-1.491262-4.970874 0.994175-10.438835 1.98835-16.403884 1.98835-5.965049 0.497087-12.427184 0.497087-17.895145 0 13.421359 3.976699 29.328155 3.976699 44.737864 0.994175 15.409709-2.982524 30.819417-8.450485 45.732039-13.918447-8.450485 4.473786-18.88932 8.450485-29.825243 11.43301-10.935922 2.982524-22.368932 4.970874-33.801942 5.965048 8.450485-0.497087 16.900971-1.491262 25.848544-3.976699 8.947573-1.98835 17.398058-4.473786 25.351456-6.959223-7.456311 3.479612-16.403883 5.965049-25.848544 7.953398-9.44466 1.98835-18.88932 3.479612-27.339805 4.473786 8.947573 2.485437 19.883495 1.98835 31.813592-0.497087 11.930097-2.485437 23.860194-6.462136 35.293204-11.43301-3.976699 2.485437-9.44466 4.473786-14.912622 6.462136s-11.43301 3.479612-16.90097 5.467961c12.427184-0.994175 26.345631-5.965049 39.269902-12.924271 12.924272-6.959223 24.357282-15.409709 33.801942-21.871845-0.994175 2.485437-6.462136 6.959223-11.43301 10.438835-4.970874 3.976699-10.935922 7.456311-15.906796 10.438835 15.906796-7.456311 30.32233-18.392233 45.234952-30.819418 0.994175 0.994175-1.98835 3.976699-5.467961 6.959224-5.467961 4.970874-12.924272 10.935922-20.380583 15.906796-7.456311 4.970874-15.409709 9.44466-21.374757 13.421359-13.918447 6.462136-25.351456 10.935922-38.275728 14.912621 14.912621-0.994175 31.316505-4.970874 47.223301-10.935922 15.906796-5.965049 31.316505-13.918447 45.234951-22.866019-11.43301 8.947573-25.848544 16.403883-40.264078 21.871844-14.415534 5.965049-28.831068 9.941748-43.246602 12.427185 8.947573-0.994175 19.386408-3.479612 29.328156-6.959224 9.941748-2.982524 19.883495-6.959223 28.33398-10.935922-14.912621 7.953398-30.32233 13.421359-46.229126 16.900971-15.906796 3.479612-32.31068 5.467961-49.21165 5.965048 11.43301 0.497087 23.860194-0.497087 36.287378-2.485436s24.357282-4.970874 35.293204-8.450486c-8.450485 3.479612-16.900971 5.965049-25.351456 7.953398-8.450485 1.98835-16.900971 2.982524-25.848544 3.976699 25.351456-1.491262 52.691262-8.947573 78.042719-21.871844 25.351456-12.427184 48.714563-30.32233 67.603883-50.702913-6.959223 8.947573-15.906796 17.398058-25.848544 25.351456-9.941748 7.953398-20.87767 14.912621-31.316504 21.374758 5.965049-2.982524 12.427184-6.959223 18.392233-11.43301 5.965049-3.976699 11.930097-8.947573 17.398058-12.924272-16.403883 15.409709-35.293204 27.339806-54.679612 36.287379-19.883495 8.947573-40.264078 14.415534-61.638835 17.895145 25.848544-2.485437 53.685437-10.935922 79.533981-24.854369 25.848544-13.918447 49.21165-33.304854 68.100971-55.176699-19.386408 24.854369-44.240777 44.240777-71.083495 58.656311-26.842718 14.415534-56.170874 22.866019-86.493204 26.345631 25.351456-1.98835 52.194175-8.947573 77.048543-20.87767 25.351456-11.930097 48.714563-28.831068 68.100971-48.714563 12.924272-12.924272 24.357282-28.333981 34.299029-42.252427-9.941748 16.900971-20.87767 30.32233-33.801941 43.743689-1.98835 2.485437 1.491262-1.98835 0.994174 0-17.895146 18.88932-38.275728 33.801942-59.650485 45.234952s-44.240777 19.386408-69.095146 23.860194c13.918447-1.491262 30.819417-6.462136 46.726214-12.924272 8.947573-3.479612 18.392233-7.953398 26.842718-12.427185 8.450485-4.473786 16.403883-9.44466 22.368932-12.924271 9.44466-6.959223 17.895146-13.421359 25.848544-20.380583-5.467961 6.959223-12.427184 11.43301-19.386408 16.900971 13.918447-9.941748 27.339806-22.368932 39.269903-36.287379 11.930097-13.918447 22.368932-28.831068 30.819418-44.240776-10.935922 22.866019-26.345631 41.75534-42.749515 58.65631-24.854369 24.854369-55.176699 44.240777-87.984466 56.667961s-68.100971 16.900971-102.897087 14.415534c20.87767 1.98835 42.749515 0.994175 64.621359-2.982524s43.246602-11.43301 63.627184-21.374757c20.380583-9.941748 39.269903-23.363107 55.673787-38.275728 16.900971-15.409709 31.316505-32.807767 43.246602-51.2-14.912621 25.351456-34.299029 46.726214-56.667961 64.621359-22.368932 17.398058-47.720388 31.316505-74.563107 40.264078-0.994175 0.994175 6.959223-2.982524 6.959223-1.491263-34.796117 12.924272-72.07767 17.398058-108.365048 13.918447-36.287379-3.479612-71.083495-15.906796-101.405826-34.796116-6.462136-3.976699-11.930097-8.450485-17.895145-12.427185-5.467961-4.473786-11.43301-8.450485-17.398059-12.427184 14.415534 13.421359 30.32233 24.854369 48.217476 34.796116 17.398058 9.44466 36.287379 16.900971 56.170874 21.871845 19.883495 4.970874 40.264078 6.959223 60.64466 6.959223s41.258252-2.982524 61.141748-8.450485c40.264078-10.935922 78.042718-32.31068 108.365048-61.638835 30.32233-29.328155 53.685437-66.609709 67.106796-107.370874-2.485437 11.930097-7.953398 23.363107-12.924271 34.796116 2.485437-3.976699 4.970874-10.935922 7.45631-15.409708-8.450485 24.357282-21.871845 46.229126-37.281553 66.112621-18.392233 23.363107-40.761165 43.246602-65.615534 59.153398-24.854369 15.906796-52.691262 27.339806-81.52233 33.304855-19.883495 3.976699-39.269903 5.467961-58.656311 4.970873-18.88932-0.497087-37.778641-3.479612-56.170874-8.450485-36.287379-9.941748-70.08932-28.333981-98.920388-54.182524-9.44466-8.450485-16.900971-17.398058-24.357282-25.848544-6.959223-8.450485-13.918447-16.403883-20.877669-23.860194 6.959223 10.438835 14.415534 21.374757 23.363106 31.813592 8.947573 10.438835 18.88932 20.380583 30.32233 29.825243 16.900971 13.918447 36.784466 25.848544 57.662136 34.299029 20.380583 8.450485 42.749515 14.415534 65.118447 17.398058 22.368932 2.982524 45.732039 2.982524 68.100971-0.497087 34.299029-4.970874 67.603883-17.398058 97.429126-35.790292 29.825243-18.392233 55.673786-42.749515 76.551456-72.077669 6.959223-9.44466 12.924272-19.883495 18.392233-29.825243 5.467961-10.438835 10.438835-20.87767 14.415534-30.819418-7.953398 22.368932-18.88932 42.749515-31.813592 61.638835-12.924272 18.392233-28.333981 35.293204-45.234951 50.702913 17.398058-13.918447 33.801942-31.813592 47.720388-52.691262 13.918447-20.87767 25.351456-44.737864 32.807767-70.089321 4.970874-16.403883 7.456311-34.796117 10.438835-50.205825-1.98835 26.842718-8.450485 51.2-17.398058 75.060194 6.462136-12.427184 11.930097-28.831068 15.906796-45.732039 3.976699-16.900971 5.965049-33.801942 7.45631-47.720388 0.994175 9.44466-0.497087 21.374757-1.988349 31.316505-5.467961 36.784466-18.88932 72.574757-38.772816 103.891262-19.883495 31.316505-45.732039 58.656311-76.054369 79.036893-23.363107 15.906796-49.708738 28.333981-77.545631 36.784466-27.836893 8.450485-57.165049 11.930097-86.493203 10.935923-29.328155-0.994175-58.656311-6.959223-86.493204-17.895146-27.836893-10.935922-53.18835-26.345631-75.060195-46.229126 1.98835 0.497087 6.462136 4.473786 8.450486 5.965048-12.427184-10.935922-24.357282-23.363107-35.293204-37.77864-10.935922-14.415534-21.374757-29.825243-29.328155-46.726214-8.450485-16.900971-14.912621-34.299029-18.889321-52.194175-4.473786-17.895146-6.462136-35.790291-6.959223-52.691262 0-6.959223 0-16.900971 0.994175-25.848544 0.497087-8.947573 1.491262-16.900971 1.988349-20.87767 0 0 0-0.994175-0.497087-0.994174 0.497087-1.491262 0 0 0.497087 0 0.497087-6.959223 0.994175-11.930097 1.98835-16.900971s1.98835-9.941748 3.479611-16.900971c0 4.473786-1.491262 12.427184-2.982524 16.900971 0.497087 0.994175 0 5.965049-0.994175 10.935922 0.497087-1.491262 0.994175-4.473786 1.491263-7.45631 0.497087-2.982524 0.497087-5.467961 0.497087-5.965049 1.491262-7.456311 3.479612-13.421359 4.970874-21.871845 3.479612-9.44466 5.965049-19.883495 9.44466-27.339806 2.982524-6.959223 6.959223-12.924272 7.953398-18.392233 1.98835-1.98835 2.982524-4.473786 5.965049-8.947572 0.497087-1.491262-0.497087 0.497087-0.994175 1.491262 2.982524-4.970874 4.970874-7.953398 6.959223-11.43301 1.98835-3.479612 4.473786-6.959223 8.450485-11.930097 0.497087-1.98835 4.970874-6.959223 11.43301-14.415534 0.994175-1.491262 2.485437-3.479612 2.485437-3.479612 7.953398-8.947573 16.900971-17.398058 26.345631-25.848543 9.44466-7.953398 19.883495-15.409709 30.32233-21.871845 10.438835-6.462136 20.87767-11.930097 30.819418-15.906796 9.941748-4.473786 19.386408-7.456311 26.842718-9.941748 1.98835-0.497087 1.491262-0.497087 0.497088-0.497087 10.438835-2.982524 18.88932-4.970874 26.345631-6.462136 7.953398-1.491262 14.912621-2.485437 22.368932-2.982524 1.98835-0.497087 7.456311-0.994175 12.924272-1.491262 5.467961 0 11.930097 0 15.906796-0.497088 2.485437 0 0.994175 0 0.994174 0.497088 19.883495 0.497087 43.246602 2.982524 67.603884 10.438835s49.708738 18.88932 73.568932 36.287378c-5.965049-3.976699-9.941748-6.462136-14.912621-9.44466-4.473786-2.485437-9.44466-5.467961-15.906797-8.947573-1.491262-0.497087 0 0 0.497088 0.497088-4.473786-1.491262-11.930097-5.965049-17.895146-8.450486 0 0.497087 2.982524 1.491262 2.982524 1.98835-2.485437-0.497087-5.467961-2.982524-8.450485-3.479612 18.392233 7.953398 34.796117 16.900971 50.205825 27.339806 15.409709 10.935922 30.32233 23.860194 44.240777 39.76699-3.479612-2.982524-8.947573-9.941748-13.421359-13.918446-0.994175-0.994175 0 0 0.497087 0.994174-11.930097-11.43301-24.357282-20.87767-37.281553-28.831068-12.427184-7.953398-25.351456-14.912621-38.772816-20.380582-13.421359-5.467961-27.339806-9.941748-42.252427-13.421359-14.912621-3.479612-30.819417-5.467961-48.217476-5.965049 44.737864 2.485437 87.487379 15.906796 124.271845 39.76699 36.784466 23.363107 67.603883 56.667961 88.481553 97.429127 3.976699 7.953398 0 0.994175-1.988349-2.982525s-3.976699-7.456311-6.462136-11.433009c-0.994175-0.994175 0 0 0.497087 0.994174-4.970874-7.953398-9.44466-14.415534-13.918446-20.380582-4.473786-5.965049-8.947573-11.43301-15.409709-18.392233 7.456311 9.44466 16.403883 21.871845 24.854369 34.796116 8.450485 13.421359 15.409709 27.836893 19.883495 40.264078-5.965049-13.918447-12.924272-26.842718-20.87767-39.269903s-17.398058-24.854369-28.33398-36.784466c0.497087 1.491262 3.976699 4.970874 5.965048 6.959223-1.491262-1.491262-4.970874-5.467961-8.947573-9.44466l-11.433009-11.43301c-0.994175-0.994175 0 0 0.497087 0.994175-26.345631-23.860194-58.656311-42.749515-93.452427-53.188349-17.398058-5.467961-35.293204-8.450485-53.18835-9.941748-17.895146-1.491262-35.790291-0.497087-53.685437 1.98835 11.930097-1.491262 25.351456-2.485437 40.264078-1.98835 14.912621 0.497087 30.819417 1.98835 46.726214 5.965049 15.906796 3.479612 32.31068 8.947573 47.720388 16.403883 15.409709 6.959223 29.825243 15.906796 42.749515 25.848544 2.982524 2.485437 0.994175 0.994175-2.982525-1.98835-3.479612-2.485437-8.450485-5.965049-10.438835-6.959223-5.467961-3.479612-13.421359-7.456311-16.900971-9.44466 21.374757 11.930097 43.246602 27.836893 61.638835 47.720388 18.392233 19.386408 33.304854 42.252427 43.246602 64.621359 0.994175 2.485437 2.485437 5.467961 3.479612 7.953398 0.994175 1.491262 2.982524 7.456311 0.994175 3.479612-1.98835-4.970874-3.976699-9.941748-6.462136-14.415534-0.497087-0.994175-0.497087 0 0 0.994175-18.392233-37.281553-45.732039-68.598058-78.539806-91.464078-1.491262-0.994175 0 0.497087 0.994175 1.491262-1.98835-0.497087-7.456311-5.467961-9.44466-5.965048 14.415534 9.941748 28.831068 21.871845 41.258252 35.293204 12.427184 12.924272 22.866019 27.339806 30.32233 39.269903 1.491262 2.485437 3.479612 5.467961 4.970874 8.450485l1.988349 3.976699c0.994175 1.98835 0.497087 1.491262 0 0-2.982524-5.467961-5.965049-10.438835-8.947572-15.906796-0.994175-0.994175 0 0.497087 0.497087 1.491262-4.473786-5.965049-7.953398-11.930097-12.427185-16.900971 9.44466 12.924272 17.398058 25.848544 24.357282 40.264078 6.959223 13.918447 12.924272 29.328155 16.403883 46.229126 0.994175 2.982524 0 1.491262-0.497087-0.994175-0.497087-1.491262-0.497087-2.982524-0.994175-3.976699-0.994175-2.982524-1.491262-5.467961-2.485437-8.450485-0.497087-1.491262 0 0.497087 0.497088 1.491262-3.976699-12.427184-8.450485-23.363107-13.918447-33.801942-5.467961-10.438835-10.935922-20.380583-18.392233-30.819417-1.491262-1.98835-0.497087 0.497087-2.982524-2.485437-9.941748-12.924272-21.871845-25.848544-34.796117-37.281554-12.924272-11.43301-26.842718-20.87767-41.258252-28.831067 2.485437 1.98835 5.965049 3.976699 9.941748 6.462135-14.415534-8.947573-28.831068-15.906796-43.74369-20.877669-14.415534-5.467961-29.328155-8.947573-44.240776-11.43301 21.374757 3.479612 42.252427 9.941748 61.638835 19.386408 19.386408 9.44466 36.784466 20.87767 52.691262 34.796116 31.316505 27.339806 54.182524 62.63301 67.106796 99.914563 4.473786 12.924272 7.953398 25.848544 9.44466 40.264078 0 0.497087 0.994175 7.953398 0 0.994175-0.994175-8.450485-2.485437-14.912621-4.473786-21.374758-1.491262-6.462136-3.479612-12.427184-6.462136-20.87767 0 0.994175 0.497087 2.485437 0.994174 4.970874-9.941748-27.836893-24.854369-54.182524-44.240776-76.551456-19.386408-22.368932-42.749515-41.258252-69.592233-54.679612 18.392233 9.941748 34.796117 21.871845 48.714563 35.293204 14.415534 12.924272 26.345631 27.339806 35.293204 41.75534-4.970874-6.959223-11.930097-15.409709-19.386408-24.357282 0.994175 1.98835 2.982524 3.976699 4.970874 6.462136-10.438835-11.930097-21.871845-23.363107-35.293204-33.304854-12.924272-10.438835-27.339806-18.88932-42.749515-26.345631 16.900971 8.450485 31.813592 18.392233 45.732039 29.825243 13.421359 11.43301 25.848544 23.860194 36.287379 37.77864 10.438835 13.918447 19.386408 29.328155 26.842718 45.732039 6.959223 16.403883 12.427184 34.299029 14.912622 53.18835-1.98835-11.930097-4.970874-22.368932-7.953399-30.819418-0.497087 0.497087 0.994175 3.479612 0.994175 4.970874-5.965049-18.88932-14.912621-38.772816-26.345631-56.667961-11.930097-18.392233-26.345631-34.796117-42.252427-47.720388 6.959223 6.462136 14.415534 13.918447 20.87767 21.374757 6.462136 7.456311 12.427184 15.409709 15.906796 21.374757 3.479612 4.970874 0.994175 2.485437-0.994175-0.994175-12.924272-18.392233-28.333981-33.801942-46.229126-47.720388 9.941748 7.953398 21.871845 18.88932 32.31068 31.316505 10.438835 12.427184 19.386408 25.848544 25.848543 38.275728 0 0 0.994175 2.485437 2.485437 4.970874 0.994175 2.485437 2.485437 4.970874 1.98835 4.473786-3.479612-6.959223-4.970874-9.44466-6.462136-11.43301-0.994175-1.98835-1.98835-3.976699-4.970874-8.450485-7.456311-11.43301-15.409709-21.871845-24.357282-31.813592-8.947573-9.44466-18.392233-18.392233-29.328155-26.842719-3.479612-2.485437-7.456311-5.965049-11.43301-8.450485-3.976699-2.485437-7.953398-4.970874-10.935922-5.965049 12.924272 8.450485 25.848544 17.895146 37.778641 29.328156 11.930097 11.43301 22.866019 23.860194 31.813592 37.778641 9.44466 13.918447 16.900971 28.831068 22.368932 44.737864 5.467961 15.409709 9.44466 31.316505 10.935922 47.223301-1.98835-15.906796-5.965049-31.813592-11.930097-47.223301-5.965049-15.409709-13.421359-30.32233-22.866019-44.240777-18.88932-27.836893-44.737864-51.697087-74.563107-67.603884 7.456311 4.473786 13.421359 7.953398 19.386408 12.427185 5.965049 4.473786 12.427184 9.44466 19.386408 15.906796 1.491262 1.491262-2.485437-1.98835-5.965049-4.473786s-5.467961-3.976699-0.497087 0c5.965049 4.970874 12.427184 10.935922 19.386408 18.392233s13.918447 15.906796 19.883495 25.351456C1297.398058 402.640777 1303.363107 412.582524 1307.339806 422.524272c4.473786 9.44466 7.456311 18.88932 9.941747 27.339806-5.965049-18.88932-15.906796-39.269903-29.825242-58.159224-13.421359-18.88932-30.819417-35.790291-49.211651-48.714563 20.87767 15.409709 39.76699 35.293204 54.182524 58.656311 14.415534 23.363107 23.860194 49.708738 27.836894 76.054369 0.497087 1.491262 0 1.491262 0 0.994175-2.982524-18.392233-8.947573-37.281553-17.895146-55.673787-8.947573-18.392233-20.87767-35.293204-34.299029-50.205825 0 0.994175 2.485437 3.479612 3.976699 5.467961-11.930097-12.924272-25.848544-25.351456-41.258252-35.790291-15.409709-10.438835-32.31068-18.392233-48.714564-23.860194 13.421359 5.467961 27.339806 11.930097 40.761165 20.380582 13.421359 8.450485 26.345631 18.88932 38.275729 30.819418 11.43301 11.930097 21.871845 24.854369 29.825242 38.772815 7.953398 13.918447 13.918447 27.836893 17.895146 41.75534-2.982524-7.953398-5.467961-15.906796-9.44466-22.368932-4.970874-10.438835-10.438835-20.87767-16.900971-30.32233-6.462136-9.44466-13.918447-17.895146-21.374757-24.854369 17.398058 20.87767 31.316505 45.732039 40.264077 74.066019-1.98835-3.479612-3.976699-8.947573-6.462136-14.415534-2.485437-5.467961-5.467961-11.43301-7.953398-15.906796-0.497087 0.497087 1.491262 2.485437 1.98835 3.976699-7.953398-13.421359-17.398058-26.842718-28.831068-38.772815 1.491262 3.479612 5.467961 7.953398 9.44466 12.924272 3.976699 4.970874 7.953398 10.438835 9.44466 14.912621 0 1.491262-1.491262-0.497087-1.988349 0.497087 2.982524 4.970874 3.976699 6.959223 6.959223 12.924272-3.976699-6.462136-7.953398-13.421359-12.924272-20.380582 4.473786 7.953398 9.941748 16.900971 14.415534 26.842718-0.497087 0-0.994175-1.491262-1.491262-2.485437 1.98835 5.467961 4.970874 12.427184 7.953398 20.380583 2.485437 7.456311 4.970874 15.409709 5.467961 21.871844 0.497087 1.98835 0.497087-1.98835 0.994175 0.994175 0.497087 2.982524 0.994175 7.456311 1.491262 11.930097 0.497087 4.473786 0.994175 8.450485 0.994175 10.438835 0.497087 3.976699-0.994175 10.438835-0.994175 16.403884 5.965049-2.485437 7.456311 2.485437 5.467961-1.98835z m-244.069903 243.075728c2.982524 0.994175 7.456311 1.98835 9.444661 2.982525 4.473786 0.994175 12.427184 3.479612 12.427184 2.485437-2.982524-0.497087-7.953398-1.98835-12.427184-2.982525-3.479612-0.994175-11.43301-3.479612-9.444661-2.485437z m12.427185-31.316504c-3.976699-1.491262-9.941748-3.479612-13.421359-3.9767 3.479612 1.98835 8.947573 3.976699 13.421359 3.9767z m35.293204 0.497087c-6.462136-0.497087-12.924272-1.98835-19.883495-3.479612-6.462136-1.98835-13.421359-3.479612-19.386408-4.473786 6.462136 1.98835 12.924272 3.976699 19.386408 5.467961 6.959223 1.491262 13.421359 2.485437 19.883495 2.485437z m19.883495 1.491262c-1.491262-0.497087-10.935922-0.497087-8.450486 0.497087 0.497087-0.497087 6.959223 0.497087 8.450486-0.497087z m6.959223-1.491262c2.485437 0.994175 7.456311 0.497087 11.930097 0 4.473786-0.497087 9.44466-1.98835 12.427185-2.982524-7.456311 0-16.900971 1.98835-24.357282 2.982524z m-40.264077-4.970874c6.462136 1.491262 13.421359 2.982524 21.374757 3.976699 7.456311 0.994175 15.409709 0.497087 22.866019-0.994175-14.912621 0.497087-29.825243-1.491262-44.240776-2.982524z m-15.906797-8.450485c4.970874 1.491262 11.930097 3.479612 18.889321 4.473786 6.959223 0.994175 14.415534 1.491262 20.380582 0.994175-6.462136 0-13.918447-1.491262-20.87767-2.982524-6.462136-1.491262-12.924272-2.485437-18.392233-2.485437z m-19.883495-6.959224c2.982524 1.491262 6.959223 2.485437 10.438835 3.479612 3.479612 0.994175 7.456311 1.491262 9.44466 1.491262-6.959223-1.98835-14.912621-4.473786-19.883495-4.970874z m-8.450485 3.479612c0.497087 0.497087-4.970874-2.485437-6.959223-2.982524 2.485437 1.491262 9.941748 4.473786 6.959223 2.982524z m-15.906796-15.906796c4.473786 2.485437 12.427184 6.462136 15.906796 6.462136-4.970874-1.98835-11.930097-6.462136-15.906796-6.462136z m-4.970874 4.970874c-0.497087 0.497087 6.462136 3.976699 4.970874 2.982524-2.485437-0.994175-1.98835-1.491262-4.970874-2.982524z m-4.473786 7.45631c7.953398 4.473786 17.398058 9.941748 26.345631 11.930097-3.976699-1.491262-8.450485-3.976699-13.42136-6.462135-4.473786-1.98835-9.44466-4.473786-12.924271-5.467962z m-47.223301-25.848543c-4.970874-4.473786-10.438835-11.930097-15.409709-15.409709 4.473786 4.970874 10.438835 12.427184 15.409709 15.409709z m16.403883 1.988349c-4.473786-3.976699-9.941748-8.450485-13.918447-10.935922 3.479612 3.976699 10.438835 9.44466 13.918447 10.935922z m17.398058 15.409709c3.976699 2.485437 8.947573 5.467961 10.935923 5.467961-3.976699-1.98835-8.450485-4.970874-10.935923-5.467961z m-23.860194-6.959223c2.485437 1.98835 8.947573 7.456311 9.941748 6.959223l-3.976699-3.479612c-1.98835-1.491262-4.473786-3.479612-5.965049-3.479611z m6.959223-27.339806c4.473786 3.976699 9.44466 7.456311 13.42136 9.44466-4.473786-3.479612-10.438835-7.953398-13.42136-9.44466z m-12.427184-2.485437c1.98835 2.485437 7.953398 8.450485 9.941748 8.947573-2.982524-2.982524-7.456311-7.456311-9.941748-8.947573z m-16.900971-6.462136c1.98835 2.982524 4.970874 6.462136 7.953398 9.44466 2.982524 2.982524 6.462136 5.467961 8.947573 6.959223-5.467961-5.965049-11.930097-11.930097-16.900971-16.403883z m13.918447-8.450485c2.485437 2.982524 5.965049 5.965049 7.953398 6.959223-2.982524-2.485437-5.965049-5.467961-7.953398-6.959223z m-7.953398 1.988349c1.98835 2.485437 3.976699 4.473786 5.965048 5.467961-2.485437-1.98835-4.970874-4.970874-5.965048-5.467961z m107.867961 17.895146c1.491262 0 3.976699 1.491262 4.473786 0.994174-1.98835 0-3.479612-1.491262-4.473786-0.994174z m-23.860194-10.438835c-0.994175-0.497087-1.491262-0.994175-2.982525-1.491262-0.994175 0 2.982524 1.98835 2.982525 1.491262z m-79.036894 67.106796c-7.953398-6.462136-17.398058-14.415534-25.848543-22.86602-8.450485-8.450485-15.906796-17.398058-20.380583-24.854368-11.43301-14.415534-20.87767-31.316505-28.831068-49.211651-4.970874-10.935922-8.947573-23.363107-11.930097-34.796116-3.479612-11.43301-5.467961-22.368932-8.450485-30.322331 4.473786 31.316505 14.912621 62.135922 31.316505 89.972816 15.906796 27.339806 37.778641 52.194175 64.124271 72.07767 0.994175 0.994175 1.98835 1.491262 0 0z m-70.08932-154.594175c-1.491262-6.462136-2.485437-9.44466-3.479612-14.912621-0.497087 1.491262 0.497087 4.473786 0.994175 7.45631s1.98835 5.965049 2.485437 7.456311z m5.467961 22.86602c-2.485437-6.959223-4.473786-12.924272-6.462136-17.895146 1.491262 5.467961 3.976699 14.912621 6.462136 17.895146z m-18.392233 5.467961c6.462136 22.368932 17.398058 45.234951 31.316505 66.112621 13.918447 20.87767 31.813592 39.269903 49.708738 53.685437l3.479612 2.485437 2.982524 1.988349c-1.98835-1.491262-3.976699-2.982524-6.462136-4.970873-17.895146-14.912621-33.801942-32.31068-47.223301-52.194175-14.415534-19.883495-25.351456-43.743689-33.801942-67.106796z m36.784466 12.924272c-1.491262-3.976699-3.479612-9.941748-5.965048-13.42136 0.994175 2.982524 3.479612 9.941748 5.965048 13.42136z m-14.415534-0.994175c1.491262 3.976699 3.479612 7.953398 4.970874 9.44466-1.98835-3.976699-3.976699-8.450485-4.970874-9.44466z m56.170874 25.351456c-2.485437-3.976699-6.959223-9.44466-9.44466-12.427184 2.982524 4.970874 5.965049 9.44466 9.44466 12.427184z m-23.860194 21.871845c2.982524 3.976699 4.473786 5.467961 4.473786 5.467961-0.497087-0.497087-1.491262-2.485437-4.473786-5.467961z m16.900971-4.970874c-3.479612-4.970874-9.44466-11.43301-12.427185-14.912621 2.982524 5.467961 7.953398 11.43301 12.427185 14.912621z m1.988349-32.807767c2.485437 3.976699 6.462136 8.450485 8.947573 11.930097-0.497087 0-0.994175-0.497087-1.491262-0.497087 2.982524 3.976699 5.965049 6.959223 8.450485 9.44466-2.485437-2.982524-5.467961-7.456311-7.953398-11.43301-2.982524-3.976699-5.467961-7.953398-7.953398-9.44466z m-35.790291 8.947573c0.497087 1.98835 4.970874 9.941748 5.467961 8.947573-2.982524-3.479612-3.976699-6.959223-5.467961-8.947573z m5.965048-21.374757c2.485437 5.965049 6.959223 14.415534 10.438835 17.398058-3.479612-5.965049-7.456311-12.924272-10.438835-17.398058z m44.737865-40.761166l-7.456311-19.386407c3.976699 14.912621 9.44466 27.836893 16.900971 36.784466-2.485437-3.976699-4.473786-6.959223-6.959224-12.427185 0 0.497087 0.497087 1.491262 0.497088 1.491262 0-1.491262-2.485437-5.467961-2.485437-5.467961-0.497087 0 0-0.994175-0.497087-0.994175 0.497087 0 0 0 0 0z m-3.479612-29.825242c1.491262 7.953398 3.479612 14.415534 6.462136 20.380582-0.497087-3.976699-3.479612-8.947573-3.976699-14.415534v1.491262c0-1.491262-0.994175-3.479612-0.497088-5.467961-1.491262 0.497087-0.994175-2.485437-1.988349-1.988349z m-72.07767-50.702913c-0.994175 0-1.491262 6.959223-0.994175 7.953398 0.497087-2.982524 0.497087-5.467961 0.994175-7.953398z m170.998058-112.838835c-4.473786 0.994175-8.947573 2.485437-11.930097 4.473787 1.491262-0.497087 6.462136-2.485437 9.941748-3.479612 3.976699-0.994175 6.462136-1.98835 1.988349-0.994175z m83.013593 5.467961c0.994175-0.497087 3.479612 0.994175 3.976699 0.994175 0.994175-0.994175-5.965049-1.98835-3.976699-0.994175z m135.704854 105.382525c0.994175 2.485437 0.994175 6.959223 1.491262 6.462136-0.497087-1.491262-0.497087-5.965049-1.491262-6.462136z" fill="#ffffff" /><path d="M1309.328155 503.549515c0-3.479612 0.497087-7.953398-0.497087-9.444661 0 3.976699 0 6.959223 0.497087 9.444661z" fill="#ffffff" /></svg>