<?xml version="1.0" standalone="no"?><!DOCTYPE svg PUBLIC "-//W3C//DTD SVG 1.1//EN" "http://www.w3.org/Graphics/SVG/1.1/DTD/svg11.dtd"><svg class="icon" width="48px" height="48.00px" viewBox="0 0 1024 1024" version="1.1" xmlns="http://www.w3.org/2000/svg"><path d="M903.570428 134.175875c-3.28716-6.574319-8.168093-11.455253-13.049027-13.049027-3.28716-1.593774-6.574319-1.593774-9.761868-1.593774h-401.431907c-13.049027 0-24.50428 11.455253-24.50428 24.50428 0 13.049027 9.761868 24.50428 24.50428 24.50428H818.801556L544.473152 444.264591l-27.79144-17.929961c-42.434241-26.098054-89.749416-40.840467-137.064591-40.840467C236.077821 385.593774 118.536965 501.441245 118.536965 645.080156c0 143.638911 117.540856 259.486381 259.486381 259.486381 143.638911 0 259.486381-115.847471 259.486382-259.486381 0-47.315175-14.642802-96.323735-40.840467-137.064592l-16.336187-29.385214 275.822568-274.228794V543.875486c0 13.049027 11.455253 24.50428 24.50428 24.504281 13.049027 0 24.50428-11.455253 24.50428-24.504281V142.44358c0-3.28716 0-6.574319-1.593774-8.267705zM588.600778 645.080156c0 115.847471-94.63035 208.884047-208.884046 208.884046-115.847471 0-210.577432-93.036576-210.577432-208.884046 0-115.847471 94.63035-208.884047 208.884046-208.884047 115.847471-0.099611 210.577432 92.936965 210.577432 208.884047z m0 0" fill="#00B4F8" /></svg>