<?xml version="1.0" standalone="no"?><!DOCTYPE svg PUBLIC "-//W3C//DTD SVG 1.1//EN" "http://www.w3.org/Graphics/SVG/1.1/DTD/svg11.dtd"><svg t="1533131742931" class="icon" style="" viewBox="0 0 1024 1024" version="1.1" xmlns="http://www.w3.org/2000/svg" p-class="4422" xmlns:xlink="http://www.w3.org/1999/xlink" width="200" height="200"><defs><style type="text/css"></style></defs><path d="M490.537 669.849c99.474 0 121.795-54.287 121.795-54.287 1.469-6.571-4.183-21.519-18.373-20.931-6.077 0.253-11.222 3.049-14.674 7.525-25.449 18.732-55.805 30.078-88.747 30.078-88.128 0-159.831-78.227-159.831-174.358v-102.571c0-96.151 71.71-174.352 159.831-174.352s159.83 78.203 159.83 174.352v102.571c0 23.515-4.479 27.065-12.266 47.54-6.844 8.794-6.227 15.484-6.227 15.484 0.783 9.649 8.629 17.328 18.494 17.328 2.774 0 5.345-0.704 7.729-1.764 0 0 29.873-4.663 29.873-82.859v-94.016c0-119.258-88.566-216.242-197.435-216.242s-197.435 96.995-197.435 216.242v94.016c-0.001 119.223 88.559 216.258 197.431 216.258zM763.141 594.637c-18.694-42.932-42.791 0-42.791 0-43.741 95.591-135.060 149.063-229.81 149.063s-177.52-43.741-216.242-149.063c-23.193-43.775-37.613 0-37.613 0 19.982 101.839 122.17 183.556 244.447 187.633v75.621h-75.209v37.612h188.037v-37.612h-75.21v-77.2c114.574-14.291 230.096-111.136 244.396-186.058z" p-class="4423" fill="#ffffff"></path></svg>