<?xml version="1.0" standalone="no"?><!DOCTYPE svg PUBLIC "-//W3C//DTD SVG 1.1//EN" "http://www.w3.org/Graphics/SVG/1.1/DTD/svg11.dtd"><svg class="icon" width="64px" height="64.00px" viewBox="0 0 1024 1024" version="1.1" xmlns="http://www.w3.org/2000/svg"><path d="M907.264 966.656H114.688c-16.384 0-32.768-8.192-43.008-20.48-10.24-14.336-14.336-30.72-10.24-47.104 40.96-208.896 210.944-364.544 415.744-380.928 68.608 0 142.848 8.704 217.088 38.912 21.504 8.704 28.672 14.336 40.96 20.48 118.784 67.584 200.704 184.32 227.328 321.536 4.096 16.384 0 32.768-12.288 47.104-10.24 12.288-26.624 20.48-43.008 20.48z" fill="#ffffff" /><path d="M512 536.576c-129.024 0-235.52-106.496-235.52-235.52s106.496-235.52 235.52-235.52 235.52 106.496 235.52 235.52-106.496 235.52-235.52 235.52z" fill="#ffffff" /></svg>