<?xml version="1.0" standalone="no"?><!DOCTYPE svg PUBLIC "-//W3C//DTD SVG 1.1//EN" "http://www.w3.org/Graphics/SVG/1.1/DTD/svg11.dtd"><svg class="icon" width="64px" height="64.00px" viewBox="0 0 1024 1024" version="1.1" xmlns="http://www.w3.org/2000/svg"><path d="M870.4 220.224c0-82.176-61.248-150.272-137.6-150.272H314.368c-76.352 0-137.6 68.096-137.6 150.272v591.68c0 82.24 61.248 150.336 137.6 150.336h418.368c76.352 0 137.6-68.032 137.6-150.336V220.224z m-41.28 597.312c0 58.432-42.176 105.28-92.288 105.28H310.4c-50.176 0-92.416-46.784-92.416-105.28V214.592c0-58.368 42.24-105.344 92.416-105.344h426.432c50.112 0 92.288 46.912 92.288 105.344v602.944z" fill="#1296db" /><path d="M240.96 774.912h587.84v-41.6H218.368v41.6zM593.92 847.232a20.928 20.928 0 0 1-20.992 20.992H474.176a20.992 20.992 0 1 1 0-41.984h98.752c11.648 0 20.992 9.408 20.992 20.992z" fill="#1296db" /></svg>