<?xml version="1.0" standalone="no"?><!DOCTYPE svg PUBLIC "-//W3C//DTD SVG 1.1//EN" "http://www.w3.org/Graphics/SVG/1.1/DTD/svg11.dtd"><svg class="icon" width="64px" height="64.00px" viewBox="0 0 1024 1024" version="1.1" xmlns="http://www.w3.org/2000/svg"><path d="M938.666667 128 85.333333 128C32.298667 128 0 161.322667 0 213.333333l0 597.333333c0 52.010667 32.298667 85.333333 85.333333 85.333333l853.333333 0c52.992 0 85.333333-33.322667 85.333333-85.333333L1024 213.333333C1024 161.322667 991.658667 128 938.666667 128zM42.666667 213.333333c0-34.688 7.296-42.666667 42.666667-42.666667l853.333333 0c35.328 0 42.666667 8.021333 42.666667 42.666667l0 28.458667L512 554.666667 42.666667 241.792 42.666667 213.333333zM981.333333 810.666667c0 34.688-7.338667 42.666667-42.666667 42.666667L85.333333 853.333333c-35.370667 0-42.666667-8.021333-42.666667-42.666667L42.666667 308.394667l470.570667 312.96L981.333333 308.522667 981.333333 810.666667z" fill="#cdcdcd" /></svg>