<?xml version="1.0" standalone="no"?><!DOCTYPE svg PUBLIC "-//W3C//DTD SVG 1.1//EN" "http://www.w3.org/Graphics/SVG/1.1/DTD/svg11.dtd"><svg class="icon" width="64px" height="64.00px" viewBox="0 0 1024 1024" version="1.1" xmlns="http://www.w3.org/2000/svg"><path d="M513.879813 52.034097c-179.852204 0-325.647755 149.541875-325.647755 334.010213 0 92.232634 36.447097 175.735443 95.375208 236.178047l0 0 230.272547 236.177024L744.142128 622.221334c58.934251-60.442604 95.376231-143.945413 95.376231-236.178047C839.518359 201.575971 693.726901 52.034097 513.879813 52.034097L513.879813 52.034097 513.879813 52.034097zM513.879813 469.548142c-44.965098 0-81.415264-37.388539-81.415264-83.503832 0-46.119387 36.450167-83.502809 81.415264-83.502809 44.958958 0 81.415264 37.383422 81.415264 83.502809C595.295078 432.160627 558.838771 469.548142 513.879813 469.548142L513.879813 469.548142 513.879813 469.548142zM513.879813 469.548142" fill="#ffffff" /></svg>