<?xml version="1.0" standalone="no"?><!DOCTYPE svg PUBLIC "-//W3C//DTD SVG 1.1//EN" "http://www.w3.org/Graphics/SVG/1.1/DTD/svg11.dtd"><svg class="icon" width="64px" height="64.00px" viewBox="0 0 1024 1024" version="1.1" xmlns="http://www.w3.org/2000/svg"><path d="M174.586238 979.265759c12.776099 0 31.953029-6.390606 38.343635-12.781211l632.675088-389.826955c12.781212-12.786324 25.562423-25.562423 25.562423-44.73424v466.514224c0 12.781212 12.781212 25.562423 31.953029 25.562423 12.781212 0 25.562423-12.781212 25.562423-25.562423V33.4561c0-19.171817-12.781212-31.947917-25.562423-31.947917s-25.562423 12.781212-25.562423 25.562423v466.514224c0-19.171817-12.781212-31.953029-25.562423-38.343635l-632.669976-396.21756c-12.781212-6.385493-25.562423-12.781212-44.73424-12.781211-38.343635 0-76.692382 31.947917-76.692382 70.296664v792.43512c-0.005112 38.338522 38.343635 70.291551 76.687269 70.291551z m-19.171817-862.731784c0-12.781212 19.171817-19.171817 25.562423-12.781212l639.060581 396.217561c6.385493 6.390606 6.385493 12.781212 6.385493 12.781211s0 6.390606-6.385493 12.786324L187.362337 921.750307h-12.776099c-6.390606 0-19.171817-6.385493-19.171817-12.781212v-792.43512z m0 0" fill="#2c2c2c" /></svg>