<?xml version="1.0" standalone="no"?><!DOCTYPE svg PUBLIC "-//W3C//DTD SVG 1.1//EN" "http://www.w3.org/Graphics/SVG/1.1/DTD/svg11.dtd"><svg class="icon" width="64px" height="60.91px" viewBox="0 0 1076 1024" version="1.1" xmlns="http://www.w3.org/2000/svg"><path d="M729.369353 0.051176L347.373029 0C155.521937 0.051176 0 162.127884 0 362.160002v299.608918C0 861.771186 155.520515 1023.900491 347.373029 1023.900491l381.996324 0.099509c191.851093-0.099509 347.321854-162.225971 347.371608-362.23108V362.160002C1076.691207 162.127884 921.220446 0.051176 729.369353 0.051176z m274.265508 661.716323c-0.30279 157.920093-122.797834 285.670611-274.265508 285.970558l-381.996324-0.049754c-151.521693-0.250193-274.016737-128.000711-274.265508-285.920804V362.160002C73.356293 204.234223 195.849915 76.536302 347.373029 76.234934H729.369353c151.467674 0.299947 273.962718 127.999289 274.265508 285.925068v299.607497z m-536.270139 69.704328L686.083127 503.419519 467.364722 275.364367v456.10746z" fill="#cdcdcd" /></svg>