<?xml version="1.0" standalone="no"?><!DOCTYPE svg PUBLIC "-//W3C//DTD SVG 1.1//EN" "http://www.w3.org/Graphics/SVG/1.1/DTD/svg11.dtd"><svg class="icon" width="64px" height="64.00px" viewBox="0 0 1024 1024" version="1.1" xmlns="http://www.w3.org/2000/svg"><path d="M959.362 445.167c-14.326-96.4-58.427-183.883-127.537-252.992S675.233 78.963 578.833 64.639a454.03 454.03 0 0 0-139.622 0.928c-46.872 7.606-91.967 22.43-134.036 44.066-10.051 5.17-14.01 17.509-8.84 27.56 5.17 10.052 17.508 14.01 27.56 8.841 159.537-82.049 352.026-51.874 478.986 75.085 97.435 97.435 137.858 233.466 114.305 363.579-19.11-32.768-43.977-56.614-86.173-88.125-8.605-6.427-29.94-15.566-33.28 5.266-1.428 8.913 37.865 56.437 55.594 105.64 20.942 58.126 14.232 73.697 22.734 105.74 0.211 1.133 0.52 2.242 0.919 3.321 5.59 19.383 25.494 16.814 32.499 8.476l0.038-0.048a20.385 20.385 0 0 0 4.851-6.143c21.636-42.068 36.46-87.164 44.066-134.036a454.062 454.062 0 0 0 0.928-139.622zM700.103 877.968c-159.536 82.048-352.026 51.874-478.985-75.085C123.726 705.491 83.295 569.538 106.78 439.48c19.36 34.474 44.457 58.846 88.044 91.396 8.605 6.426 29.94 15.565 33.28-5.266 1.428-8.913-37.865-56.437-55.594-105.641-21.653-60.098-13.744-74.702-23.653-109.06-1.34-4.647-3.507-8.02-6.116-10.366a20.386 20.386 0 0 0-5.548-4.207c-10.051-5.17-22.391-1.211-27.56 8.84-21.635 42.067-36.461 87.163-44.066 134.035a453.992 453.992 0 0 0-0.927 139.621c14.325 96.4 58.426 183.884 127.536 252.993 69.109 69.11 156.592 113.21 252.993 127.536a453.992 453.992 0 0 0 139.62-0.928c46.873-7.606 91.97-22.431 134.037-44.066 10.051-5.169 14.01-17.509 8.84-27.56-5.17-10.056-17.512-14.009-27.563-8.839z" fill="#515151" /></svg>