<?xml version="1.0" standalone="no"?><!DOCTYPE svg PUBLIC "-//W3C//DTD SVG 1.1//EN" "http://www.w3.org/Graphics/SVG/1.1/DTD/svg11.dtd"><svg class="icon" width="64px" height="64.00px" viewBox="0 0 1024 1024" version="1.1" xmlns="http://www.w3.org/2000/svg"><path d="M959.7953840433455 858.7125283343063l-166.52859164712075-166.52859164712075c48.12676322248525-68.77630911606799 74.10522446530547-150.70837501760636 74.1052222958803-236.47060018230002 0-110.40845757020452-42.96437729144588-214.1557687844369-121.06628609925428-292.2576797616705-77.9353815590355-78.1019088078084-181.6826949426931-121.06628609925428-292.09115034347235-121.06628609925428s-214.322298202635 42.96437729144588-292.2576797616705 121.06628609925428C83.68846026170104 241.55756555102346 40.72408513968031 345.304878934681 40.72408513968031 455.7133365048855s42.96437729144588 214.1557687844369 121.06628609925428 292.2576775922453c78.1019088078084 78.1019088078084 181.84922219146603 121.06628609925428 292.2576797616705 121.0662882686795 85.76222516469362 0 167.5277638174592-25.97846124282023 236.47060018230002-74.10522446530547l166.52859164712075 166.52859164712075c14.154931125233974 14.154931125233974 32.806132678140024 21.315659227524815 51.45733423104609 21.315659227524815s37.1358758570392-7.1607302717160515 51.457336400471306-21.315659227524815c28.30986008104273-28.476389499240863 28.30986008104273-74.43828113227653-0.16652941819812697-102.74814121331927z m-773.6918392352959-402.9991918294208c0-147.71086067601664 120.23364334711404-267.9445040231306 268.1110334413288-267.9445061925559s268.1110334413288 120.23364334711404 268.1110334413288 267.9445061925559-120.23364334711404 267.9445040231306-268.1110334413288 267.9445040231306c-147.87739009421475 0.16652941819812697-268.1110334413288-120.06711392891594-268.1110334413288-267.9445040231306z" fill="#ffffff" /></svg>