<?xml version="1.0" standalone="no"?><!DOCTYPE svg PUBLIC "-//W3C//DTD SVG 1.1//EN" "http://www.w3.org/Graphics/SVG/1.1/DTD/svg11.dtd"><svg class="icon" width="64px" height="64.00px" viewBox="0 0 1024 1024" version="1.1" xmlns="http://www.w3.org/2000/svg"><path d="M755.264 108.8A160.128 160.128 0 0 1 915.2 268.8v95.936c0 28.8-21.632 53.248-50.24 56.704l-39.36 4.864V870.4a44.8 44.8 0 0 1-44.736 44.8H243.2a44.8 44.8 0 0 1-44.736-44.8V426.304l-39.36-4.864A57.344 57.344 0 0 1 108.8 364.8V268.8c0-88.192 71.744-160 159.936-160H332.8v57.6c0 67.072 54.528 121.6 121.536 121.6H569.6a121.728 121.728 0 0 0 121.536-121.6v-57.6h64.128m0-44.8H646.4v102.464A76.8 76.8 0 0 1 569.6 243.2H454.336A76.8 76.8 0 0 1 377.6 166.4V64H268.736A204.8 204.8 0 0 0 64 268.8v96a102.016 102.016 0 0 0 89.6 101.12v404.48A89.6 89.6 0 0 0 243.2 960h537.6a89.6 89.6 0 0 0 89.536-89.6V465.92a101.952 101.952 0 0 0 89.6-101.12V268.8A204.736 204.736 0 0 0 755.264 64z" fill="#cdcdcd" /></svg>