<?xml version="1.0" standalone="no"?><!DOCTYPE svg PUBLIC "-//W3C//DTD SVG 1.1//EN" "http://www.w3.org/Graphics/SVG/1.1/DTD/svg11.dtd"><svg class="icon" width="48px" height="48.00px" viewBox="0 0 1024 1024" version="1.1" xmlns="http://www.w3.org/2000/svg"><path d="M623.191919 55.682155c92.401347-45.855892 207.385859-25.169024 277.03165 56.888889 67.232323 78.782492 71.714478 189.974411 18.445791 272.721885-13.274074 0-27.06532-2.241077-41.201347-6.550841-56.371717-16.721886-114.984512-62.922559-162.391919-119.811448s-82.230303-123.43165-90.33266-180.837711c-0.861953-7.585185-1.379125-15.17037-1.551515-22.410774zM157.220202 686.286869c-0.689562 40.856566 19.824916 63.26734 59.302357 69.645791l433.217508-291.167677c-59.819529-37.753535-110.847138-100.158923-137.222895-165.83973L157.220202 686.286869z m14.136027 92.228956c-36.02963 37.581145-46.890236 76.541414-38.443098 105.675421 3.447811 11.894949 10.343434 22.065993 20.342088 29.823569 10.343434 8.102357 24.479461 13.446465 41.718518 14.99798 58.785185 4.999327 146.531987-32.926599 249.104377-147.738721 103.261953-115.501684 196.008081-170.321886 272.032324-183.59596 46.028283-8.102357 86.540067-1.379125 119.983838 16.204714 33.616162 17.756229 59.474747 46.028283 76.886195 81.36835 27.06532 55.164983 32.581818 127.741414 12.06734 201.179798l-60.164309-16.894276c16.377104-58.612795 12.584512-114.984512-7.929967-156.70303-11.550168-23.445118-28.444444-42.23569-49.993266-53.613468-21.548822-11.377778-48.441751-15.342761-80.161616-9.826263-63.439731 11.205387-143.428956 59.819529-236.175084 163.771044C372.536027 955.043771 264.96431 998.141414 189.62963 991.590572c-29.651178-2.585859-54.992593-12.412121-74.817509-27.927272-20.514478-15.687542-34.822896-37.236364-42.063299-61.888216-14.308418-48.958923 0.344781-111.019529 53.441077-166.356902l45.16633 43.097643z m712.835017-352.883502c-70.162963-23.272727-139.981145-77.920539-194.973738-143.946128-50.165657-59.991919-88.608754-130.672054-104.123905-196.352862-41.201347 50.682828-57.923232 115.501684-48.786532 177.73468 25.169024 75.679461 90.505051 153.944781 163.253872 187.388553 61.026263 17.92862 128.258586 10.171044 184.630303-24.824243z" fill="#ffffff" /></svg>