<?xml version="1.0" standalone="no"?><!DOCTYPE svg PUBLIC "-//W3C//DTD SVG 1.1//EN" "http://www.w3.org/Graphics/SVG/1.1/DTD/svg11.dtd"><svg class="icon" width="64px" height="62.89px" viewBox="0 0 1042 1024" version="1.1" xmlns="http://www.w3.org/2000/svg"><path d="M342.26897283 823.63077801c-28.51523459 0-50.92006177-22.40482718-50.92006176-50.92006177v-4.07360494l10.18401235-160.90739518-103.876926-128.31855565c-18.33122224-22.40482718-14.25761729-52.95686423 8.14720987-71.28808647 6.11040741-4.07360495 12.22081482-8.14720987 20.36802472-10.18401235l156.83379023-38.69924696 87.58250624-140.53937047c14.25761729-22.40482718 44.80965436-30.55203706 69.25128401-16.29441977 6.11040741 4.07360495 12.22081482 10.18401235 16.29441977 16.29441977l87.58250624 140.53937047 156.83379023 38.69924695c26.47843212 6.11040741 42.77285189 34.625642 36.66244448 61.10407413-2.03680247 8.14720987-4.07360495 14.25761729-10.18401237 20.3680247l-103.87692599 128.31855566 10.18401236 156.83379024c4.07360495 26.47843212-14.25761729 52.95686423-40.73604942 57.03046917h-8.14720989c-6.11040741 0-12.22081482-2.03680247-18.33122223-4.07360494l-152.7601853-59.06727165-152.76018531 59.06727165c-6.11040741 4.07360495-12.22081482 6.11040741-18.33122223 6.11040741z" fill="#ffffff" /></svg>