<?xml version="1.0" standalone="no"?><!DOCTYPE svg PUBLIC "-//W3C//DTD SVG 1.1//EN" "http://www.w3.org/Graphics/SVG/1.1/DTD/svg11.dtd"><svg class="icon" width="48px" height="48.00px" viewBox="0 0 1024 1024" version="1.1" xmlns="http://www.w3.org/2000/svg"><path d="M928.735 62h-224.188c-18.228 0.027-32.099 14.739-32.128 32.128-0.025 17.385 13.9 32.153 32.128 32.125l141.18-1.028-484.705 462.302c-12.819 12.231-12.819 32.058 0 44.287 12.821 12.226 33.609 12.226 46.428 0l488.907-466.313 0.951 153.518c-0.026 17.383 13.9 32.153 32.127 32.125 18.231-0.023 32.102-14.741 32.128-32.125v-225.707c0.022-17.386-14.604-31.334-32.831-31.313v0zM897.31 833.055c0 34.907-29.348 64.259-64.253 64.259l-644.652 1.049c-34.907 0-63.202-28.292-63.202-63.19l1.053-644.663c0-34.908 29.349-64.257 64.253-64.257h353.403v-64.253h-353.403c-69.808 0-128.508 71.343-128.508 141.148v632.025c0 69.803 56.592 126.394 126.402 126.394h632.013c69.809 0 141.151-58.699 141.151-128.51v-353.398h-64.256v353.398z" fill="#cdcdcd" /></svg>