<?xml version="1.0" standalone="no"?><!DOCTYPE svg PUBLIC "-//W3C//DTD SVG 1.1//EN" "http://www.w3.org/Graphics/SVG/1.1/DTD/svg11.dtd"><svg class="icon" width="64px" height="64.00px" viewBox="0 0 1024 1024" version="1.1" xmlns="http://www.w3.org/2000/svg"><path d="M924.8 401.6c-22.6-53.4-54.9-101.3-96-142.4-3.1-3.1-6.3-6.2-9.5-9.2l67.4-67.4c12.5-12.5 12.5-32.8 0-45.3s-32.8-12.5-45.3 0l-71.9 71.9c-25.9-18.2-53.6-33.6-83.1-46.1C631.1 139.8 572.5 128 512 128s-119.1 11.8-174.4 35.2c-53.4 22.6-101.3 54.9-142.4 96-41.1 41.1-73.4 89-96 142.4C75.8 456.9 64 515.5 64 576s11.8 119.1 35.2 174.4c22.6 53.4 54.9 101.3 96 142.4 41.1 41.1 89 73.4 142.4 96 55.3 23.4 113.9 35.2 174.4 35.2s119.1-11.8 174.4-35.2c53.4-22.6 101.3-54.9 142.4-96 41.1-41.1 73.4-89 96-142.4C948.2 695.1 960 636.5 960 576s-11.8-119.1-35.2-174.4zM783.5 847.5C711 920.1 614.6 960 512 960s-199-39.9-271.5-112.5C167.9 775 128 678.6 128 576s39.9-199 112.5-271.5C313 231.9 409.4 192 512 192s199 39.9 271.5 112.5C856.1 377 896 473.4 896 576s-39.9 199-112.5 271.5zM416 64h192c17.7 0 32-14.3 32-32S625.7 0 608 0H416c-17.7 0-32 14.3-32 32s14.3 32 32 32z" fill="#cdcdcd" /><path d="M721.8 680.8L544 559.1V352c0-17.7-14.3-32-32-32s-32 14.3-32 32v224c0 10.6 5.2 20.4 13.9 26.4l191.7 131.2c5.5 3.8 11.8 5.6 18 5.6 10.2 0 20.2-4.9 26.4-13.9 10.1-14.6 6.4-34.5-8.2-44.5z" fill="#cdcdcd" /></svg>