<?xml version="1.0" standalone="no"?><!DOCTYPE svg PUBLIC "-//W3C//DTD SVG 1.1//EN" "http://www.w3.org/Graphics/SVG/1.1/DTD/svg11.dtd"><svg class="icon" width="64px" height="64.00px" viewBox="0 0 1024 1024" version="1.1" xmlns="http://www.w3.org/2000/svg"><path d="M399.28 126.894c35.426 0 69.942 6.712 102.587 19.95 33.771 13.694 64.097 33.841 90.136 59.88 36.168 36.169 61.311 81.482 72.712 131.043a274.648 274.648 0 0 1-6.306 145.917l-11.613 35.962 26.723 26.723 197.448 197.449-127.714 127.716-197.448-197.45-26.723-26.723-35.96 11.612c-27.281 8.809-55.688 13.275-84.436 13.275-35.417 0-69.905-6.696-102.503-19.9-33.73-13.664-64.02-33.776-90.024-59.781-48.451-48.452-76.716-112.803-79.587-181.199-1.875-44.64 7.112-88.468 25.788-128.032l160.004 160.005 43.696 43.695 43.696-43.695 43.02-43.02 43.697-43.697-43.697-43.695-160.01-160.012a271.412 271.412 0 0 1 24.78-10.222c29.46-10.484 60.324-15.8 91.735-15.8z m0-61.794c-76.16 0-152.307 25.84-214.22 77.503l214.022 214.022-43.02 43.021-214.024-214.021c-109.7 131.464-102.992 327.221 20.427 450.638 65.251 65.251 150.722 97.781 236.221 97.781 34.93 0 69.852-5.424 103.422-16.264l241.145 241.144 215.106-215.107-241.143-241.144c37.374-115.744 10.393-247.736-81.518-339.644C570.404 97.734 484.84 65.1 399.281 65.1" fill="#cdcdcd" /></svg>