<?xml version="1.0" standalone="no"?><!DOCTYPE svg PUBLIC "-//W3C//DTD SVG 1.1//EN" "http://www.w3.org/Graphics/SVG/1.1/DTD/svg11.dtd"><svg class="icon" width="48px" height="42.89px" viewBox="0 0 1146 1024" version="1.1" xmlns="http://www.w3.org/2000/svg"><path d="M1130.61809 259.901795 954.01552 437.13724C935.722387 455.490647 906.067621 455.490647 887.774488 437.13724 869.511492 418.783833 869.511492 389.00852 887.774488 370.655113L987.527816 270.540141 45.205436 270.540141C20.252035 270.540141 0 250.318242 0 225.364842 0 200.381304 20.252035 180.159406 45.205436 180.159406L987.527816 180.159406 887.774488 80.044434C869.511492 61.691027 869.511492 31.94585 887.774488 13.562306 906.067621-4.791101 935.722387-4.791101 954.01552 13.562306L1130.61809 190.827889C1132.667403 192.877202 1133.631785 195.46898 1135.229044 197.759389 1136.494796 199.356647 1137.519453 201.074454 1138.574246 202.822398 1139.478355 204.600478 1140.563286 206.197737 1141.226299 208.036091 1143.546844 213.40047 1145.204377 219.096354 1145.204377 225.364842 1145.204377 232.025109 1143.576981 238.233322 1140.985203 243.929207 1138.724931 249.74564 1135.319455 255.200429 1130.61809 259.901795ZM45.205436 752.761594 987.527816 752.761594 887.774488 652.646622C869.511492 634.293215 869.511492 604.517901 887.774488 586.194631 906.067621 567.841224 935.722387 567.841224 954.01552 586.194631L1130.61809 763.430077C1132.667403 765.47939 1133.631785 768.071168 1135.229044 770.361577 1136.494796 771.958836 1137.489316 773.676642 1138.544109 775.424586 1139.448218 777.17253 1140.563286 778.799925 1141.226299 780.63828 1143.546844 786.002658 1145.204377 791.698543 1145.204377 797.96703 1145.204377 804.627298 1143.576981 810.835511 1140.985203 816.531396 1138.694794 822.347828 1135.319455 827.802618 1130.61809 832.503983L954.01552 1009.739429C935.722387 1028.092836 906.067621 1028.092836 887.774488 1009.739429 869.511492 991.386022 869.511492 961.640845 887.774488 943.257301L987.527816 843.172466 45.205436 843.172466C20.252035 843.172466 0 822.920431 0 797.96703 0 772.983492 20.252035 752.761594 45.205436 752.761594Z" fill="#cdcdcd" /></svg>