<?xml version="1.0" standalone="no"?><!DOCTYPE svg PUBLIC "-//W3C//DTD SVG 1.1//EN" "http://www.w3.org/Graphics/SVG/1.1/DTD/svg11.dtd"><svg class="icon" width="48px" height="48.00px" viewBox="0 0 1024 1024" version="1.1" xmlns="http://www.w3.org/2000/svg"><path d="M883.028 962.839h-762.821l-5.103-18.427c-9.125-33.030-13.776-66.388-13.776-99.091 0-199.743 168.372-339.254 409.465-339.254 233.98 0 391.188 136.347 391.188 339.254 0 32.754-4.676 66.112-13.827 99.117l-5.13 18.401zM159.020 912.565h685.271c4.901-22.523 7.417-45.095 7.417-67.267 0-175.535-133.806-288.979-340.914-288.979-214.85 0-359.19 116.137-359.19 288.979 0 22.145 2.49 44.72 7.417 67.267z" fill="#ffffff" /><path d="M501.644 548.574c-139.99 0-253.889-114.878-253.889-256.075 0-141.223 113.899-256.125 253.889-256.125s253.889 114.905 253.889 256.125c0 141.196-113.899 256.075-253.889 256.075zM501.644 86.648c-112.263 0-203.613 92.331-203.613 205.851 0 113.471 91.348 205.801 203.613 205.801 112.263 0 203.613-92.331 203.613-205.801 0-113.521-91.348-205.851-203.613-205.851z" fill="#ffffff" /></svg>