<?xml version="1.0" standalone="no"?><!DOCTYPE svg PUBLIC "-//W3C//DTD SVG 1.1//EN" "http://www.w3.org/Graphics/SVG/1.1/DTD/svg11.dtd"><svg class="icon" width="48px" height="48.00px" viewBox="0 0 1024 1024" version="1.1" xmlns="http://www.w3.org/2000/svg"><path d="M613.873 505.925c61.326-34.797 102.802-100.588 102.802-176.108 0-111.817-90.624-202.44-202.44-202.44-111.818 0-202.44 90.623-202.44 202.44 0 75.52 41.436 141.311 102.8 176.108-152.778 43.333-264.752 183.539-264.752 350.236 0 22.3 18.109 40.489 40.488 40.489 0.078 0 0.197-0.081 0.278-0.081l0.038 0.08h647.136l0.038-0.08c0.119 0 0.199 0.08 0.317 0.08 22.34 0 40.489-18.189 40.489-40.488 0-166.697-112.015-306.903-264.754-350.236z" fill="#ffffff" /></svg>