<?xml version="1.0" standalone="no"?><!DOCTYPE svg PUBLIC "-//W3C//DTD SVG 1.1//EN" "http://www.w3.org/Graphics/SVG/1.1/DTD/svg11.dtd"><svg class="icon" width="48px" height="48.00px" viewBox="0 0 1024 1024" version="1.1" xmlns="http://www.w3.org/2000/svg"><path d="M947.924 942.427c0 21.751-17.62 39.371-39.353 39.371-21.751 0-39.371-17.62-39.371-39.371l-0.353-3.655c0-1.554 0.282-3.054 0.441-4.59-24.576-172.791-172.721-299.767-353.103-301.762-1.448 0.035-2.825 0.23-4.29 0.23-1.43 0-2.807-0.194-4.237-0.23-178.317 1.977-325.049 126.146-352.097 295.936 0.9 3.337 1.536 6.78 1.536 10.399l0.371 3.708c0 22.087-17.902 39.989-39.971 39.989s-39.989-17.902-39.989-39.989l-0.035-0.353-0.759 0c0.106-1.165 0.335-2.278 0.459-3.425 0-3.302 0.53-6.426 1.271-9.498 20.498-159.303 127.241-288.097 272.525-343.57-84.586-54.201-139.741-149.963-139.741-259.372 0-169.225 131.478-306.406 300.703-306.406 169.207 0 300.703 137.181 300.703 306.406 0 109.374-55.102 205.118-139.652 259.319 144.278 55.031 250.545 182.325 272.19 340.039 1.465 4.131 2.436 8.527 2.436 13.171l0.318 3.655zM743.495 326.332c0-127.947-103.706-231.654-231.654-231.654s-231.654 103.724-231.654 231.654c0 127.929 103.724 231.636 231.654 231.636s231.654-103.706 231.654-231.636z" fill="#ffffff" /></svg>