<?xml version="1.0" standalone="no"?><!DOCTYPE svg PUBLIC "-//W3C//DTD SVG 1.1//EN" "http://www.w3.org/Graphics/SVG/1.1/DTD/svg11.dtd"><svg class="icon" width="48px" height="48.00px" viewBox="0 0 1024 1024" version="1.1" xmlns="http://www.w3.org/2000/svg"><path d="M839.755865 355.844064l138.183101-79.29723c25.649674-15.353678 46.061034-2.709473 46.061034 22.940201v401.905098c0 28.178515-20.591992 38.293879-46.061034 22.940201l-138.183101-79.297231c-25.649674-15.353678-46.061034-30.707356-46.061033-56.357029v-179.186453c-0.180632-25.469042 20.41136-38.293879 46.061033-53.647557M0 302.015876v419.968248c0 53.828188 43.532193 97.17975 97.17975 97.17975H619.566061c53.828188 0 97.17975-43.532193 97.17975-97.17975V302.015876c0-53.828188-43.532193-97.17975-97.17975-97.17975H97.17975C43.532193 204.836126 0 248.368319 0 302.015876z m129.874052 82.367966c5.238314-24.565885 24.565885-43.712824 47.325454-47.325454 43.712824-10.476627 80.561651 26.191568 71.891339 70.085024-5.238314 24.565885-24.565885 43.712824-47.325454 49.131769-43.712824 8.670312-80.561651-29.804198-71.891339-71.891339z" fill="#ffffff" /></svg>