<?xml version="1.0" standalone="no"?><!DOCTYPE svg PUBLIC "-//W3C//DTD SVG 1.1//EN" "http://www.w3.org/Graphics/SVG/1.1/DTD/svg11.dtd"><svg class="icon" width="48px" height="48.00px" viewBox="0 0 1024 1024" version="1.1" xmlns="http://www.w3.org/2000/svg"><path d="M160.295385 816.443077L56.556308 712.861538a41.275077 41.275077 0 1 1 58.368-58.368l103.739077 103.660308 103.660307-103.660308a41.432615 41.432615 0 0 1 5.592616-4.726153 378.092308 378.092308 0 0 1-94.444308-250.171077 380.061538 380.061538 0 0 1 379.667692-379.667693 379.982769 379.982769 0 0 1 379.510154 379.667693A380.061538 380.061538 0 0 1 613.060923 779.027692a377.619692 377.619692 0 0 1-225.910154-74.830769 41.275077 41.275077 0 0 1-6.459077 8.507077l-103.660307 103.660308 103.660307 103.739077a41.275077 41.275077 0 1 1-58.368 58.28923l-103.660307-103.660307-103.739077 103.739077a41.117538 41.117538 0 0 1-58.289231 0 41.275077 41.275077 0 0 1 0-58.368l103.660308-103.739077z m452.765538-119.886769a297.353846 297.353846 0 0 0 296.96-297.03877A297.353846 297.353846 0 0 0 613.139692 102.4a297.353846 297.353846 0 0 0-296.96 296.96 297.353846 297.353846 0 0 0 296.96 297.117538z" fill="#FFA6D0" /></svg>