<?xml version="1.0" standalone="no"?><!DOCTYPE svg PUBLIC "-//W3C//DTD SVG 1.1//EN" "http://www.w3.org/Graphics/SVG/1.1/DTD/svg11.dtd"><svg class="icon" width="48px" height="48.00px" viewBox="0 0 1024 1024" version="1.1" xmlns="http://www.w3.org/2000/svg"><path d="M703.260022 159.15686c101.722776 0 188.873672 75.03495 202.713888 174.540221 9.642614 69.13252-9.594519 127.371946-58.719357 178.078815-103.370299 106.673531-288.779056 292.454772-324.899718 328.616366-3.709485 3.717671-7.937786 4.496407-10.820439 4.496407-2.888793 0-7.109931-0.778736-10.802021-4.496407-81.292468-81.608669-228.867548-229.994208-314.192865-315.994907-38.328957-38.612413-60.877509-80.081896-68.929905-126.722147-14.417361-83.47518 25.210172-168.079066 98.611925-210.523761 31.53625-18.24555 67.00609-27.889187 102.591563-27.889187 51.875484 0 101.859899 20.162202 140.725068 56.787354 17.142425 16.160051 34.172287 21.070898 48.546669 21.070898 18.48398 0 32.573883-8.125051 36.819581-10.876721 9.090029-5.924943 17.857716-12.029988 26.526143-18.060331 15.624862-10.843976 30.332842-21.096481 44.303019-28.125571 27.492144-13.863752 56.957223-20.901029 87.526449-20.901029z m0-67.394947c-39.385009 0-79.44233 8.863878-117.469412 28.027334-26.671453 13.450337-50.601468 32.485879-77.257571 49.888224 0 0-1.737574-1.355881-3.319606-2.848885-52.476165-49.449225-119.05963-74.968435-186.407503-74.968435-46.388517 0-93.142353 12.110829-135.895064 36.833906C84.687798 185.504948 32.414247 297.487392 51.715849 409.225265c11.087523 64.206324 42.346457 117.274984 87.525425 162.843832 85.358063 85.998653 232.965889 234.435357 314.26552 316.083935 16.056698 16.095583 37.030381 24.13263 58.020439 24.13263 20.974707 0 41.916668-8.004301 57.947783-24.058952 83.483366-83.565231 237.039671-237.925854 325.621149-329.315284 62.49331-64.496943 89.716324-144.131655 77.134774-234.556107-19.261693-138.330532-140.504034-232.593406-268.970917-232.593406" fill="#ffffff" /></svg>